<mxfile host="65bd71144e">
    <diagram id="LTMHbMLsVVQ784KmUUsl" name="Page-1">
        <mxGraphModel dx="836" dy="463" grid="1" gridSize="10" guides="1" tooltips="1" connect="1" arrows="1" fold="1" page="1" pageScale="1" pageWidth="1169" pageHeight="827" math="0" shadow="0">
            <root>
                <mxCell id="0"/>
                <mxCell id="1" parent="0"/>
                <mxCell id="27" value="" style="rounded=0;whiteSpace=wrap;html=1;shadow=1;labelBackgroundColor=#1A1A1A;sketch=0;fontColor=#FFFFFF;strokeWidth=0;fillColor=#1A1A1A;" vertex="1" parent="1">
                    <mxGeometry x="519.99" y="360" width="120.01" height="120" as="geometry"/>
                </mxCell>
                <mxCell id="26" value="" style="rounded=0;whiteSpace=wrap;html=1;shadow=1;labelBackgroundColor=#1A1A1A;sketch=0;fontColor=#FFFFFF;strokeWidth=0;fillColor=#1A1A1A;" vertex="1" parent="1">
                    <mxGeometry x="320" y="360" width="120" height="120" as="geometry"/>
                </mxCell>
                <mxCell id="4" style="edgeStyle=none;html=1;exitX=1;exitY=0.5;exitDx=0;exitDy=0;" edge="1" parent="1" source="22" target="10">
                    <mxGeometry relative="1" as="geometry">
                        <mxPoint x="460" y="460" as="sourcePoint"/>
                        <mxPoint x="760" y="272.5" as="targetPoint"/>
                    </mxGeometry>
                </mxCell>
                <mxCell id="10" value="OpenAI&#10;Language Model" style="shape=image;verticalLabelPosition=bottom;labelBackgroundColor=#1A1A1A;verticalAlign=top;aspect=fixed;imageAspect=0;image=data:image/png,iVBORw0KGgoAAAANSUhEUgAAAHEAAABxCAYAAADifkzQAAAABHNCSVQICAgIfAhkiAAAEO5JREFUeF7tnQXMHjUYx7sx3IYFCc6AQXAIwd3JgLBsMAhugeEOwSFIcAgOw2EMZwR3CLah23AY7hvuUp7fhftyb6/X69n73fvmmnzZrnfXPn3+1/bRvn2UUlr+mtLBHOjbwbQ3pP/PgQbELvgUGhAbELuAA10whGYmNiB2AQe6YAjNTGxA7AIOdMEQmpnYgNgFHOiCITQzsQGxCzjQBUNoZmIDYhdwoAuG0MzEBsQu4EAXDKGZiQ2IXcCBLhhCMxO7AMR+nT6Gfv36qQ022ECtuuqqao455lAzzjij+vvvv9UPP/ygPv30U3Xvvfeqt956q9OHmUo/gVId9TfttNPqU089VT/77LN60qRJ+t9//9VJ5a+//tIff/yxvu+++/TOO+/cUePMgEvnACgzTV933XX6m2++ScLMWf/PP//oN998Ux922GHdBmb9QezTp48+8sgj9WeffeYEyfcmYD733HN6jTXW6BYw6w0iAN52221a9jlfjLyf+/bbb/VBBx3U8UD2+X/dTd04e+OBGWaYQT3wwANq9dVXT+xe9jwle56aOHGiElDU999/r6aaairVv39/Nc8886hFFllEzT777Eo+Bmsbv//+uzrzzDPVcccdZ73fCZW1BvGpp55Sa665ppWP3333nXr44YfVxRdfrJ588knrM2Hl8OHD1fbbb69WWmklNeWUU8ae/eOPP9QjjzyiZpllFjXrrLMqEZyCZ6inny+//FKNHTtWXXXVVeqLL76IvV+HitotJyyht9xyi3VZRNpE0lxyySUz073LLrvod99919quT+XPP/8c7KUHH3xw5r4F6CrfqbTxXISzTwGWWWDiiSeemKtNmMjHMWzYMC1Lrtl0pmtUmgkTJui99torNy0lg1ovEGeeeWb90UcfxZgKgAcccEBupi2zzDJaFH8tS2Ss7bwVf/75p77nnnu0LMG56SoJzHqBeMkll8R4imR68skn52aU7Jt68uTJsXZtFagfv/76a/DH/30KuufKK6+cm74SgKwPiH379rXqgg899FBmBrF0HnLIIfqDDz5w4gBQ7JPswex1iy++uJ5iiimCP5Fs9f77769vvPFGLaY7p5rzySef6LXWWitYsksAJWsb9QHxqKOOipnQ2L+WX375TIPafPPNAwHENZO498orrwT7mi/jt9tuu6DdJJ31/fff14suumgmWksCvHdBHDBggD7nnHP0888/r0Wcj82au+66y5sptHX77bcHS2FSQShh1hx77LHe7ZqMPvroozWGArPQtqhFuds1+8lw3TsgsvTcf//9+scffzR50XPNF8+s8hnM2Wefrb/++uvEtrhBX9dee62eZpppvNp09bvRRhtZBTCAPOOMMwq37+rbcq+9IE499dSBERtpM60gpVoI7qljGdx7770Do7aroK6IMq9XW201Z3uuvmz3+BA///zzWNcY6Oeff/5S+7L1H6lrH4jrrLNOoF/5lmeeeSaREeuuu64WS03i/kQfzIrx48frXXfd1XvfS2FWjB7cW7/99lvLkOj3hhtuiD2bte0Mz7cHxKFDh2oxX/niFzzH/mYbyGabbeZUGWAifZ122mne4C299NJ6t9120/PNN5+1TxsdYd3NN98cG9dXX33l3berbc971YO4xRZbJPoAYTjL5osvvhhjxDXXXGNl6MiRI2PPhhW//PKL5r4Yv63vmkzhuVGjRmneo+BkvuiiiwIVw3w26Zo2bD5OBKCkd0qurxZERG6bBQaGSQiFvvDCC7UYpfWIESNiwCSBiJXELAhBTz/9tEbg8GUQAkjS6oB+mcVNdeutt5ok6ccee8ybFl+aE56rDkQEDwZiFmbfe++9pzfddNOeQeYFkbbeeecdve+++3ozbPfddw/2Zt51ldB57CMhb7XVVjG9FFUmgell11cH4hFHHBEbGEx744039GKLLdYykLwgMpN8lz7xSwYflc247gITvRPH9EILLZTIfD5Y9sFowU4rPtHEd0oEuBoQMaFhwTALIRbi14sNLC+IiPhpzBAHcaDW2HRS6riXdD9KP3qoOJA1YzP7BMSXX37ZHK4WP2bsWfPdEq6rAfGEE06ILVd8mUnum6pAFI+9ltDFGHOZjcxKZmfIxHCm4p1wFfTSPffcMwbO448/3vIayzX22xJASmujGhCxS5pFPPGJxJQNInZOaDD3Pa5ZzvfYY49EWtAr0S/Nd6Pj4SN44oknNPpqCBIGhWjh/TZJqOWDuNRSS8X8dhLL4pQcywIRYzmef5vfEEHl0ksvTQTPnDGnn356ovQagvXTTz8Fir3E8QR2UxPEIj5Qkx7HdfkgIrqbhf3CQURuFSPcEzHnAVCa3xBzH3rhXHPN5aQnpHXeeecN3FShHmmOK7xmrzeXbWbieuut59WPizce98oHUSLUYmNNmwFFZuKhhx6qJ06cGOsT3RFVwjYrkWqZab5uqA033FBjBkxyQ8U6lwpmqa/k7AGU62MoH0RTSuOLJLbFRWheENmbTL8h/eHoxaELSK79EZAxt7loi96jTfRSn/L22297t+vbf8Jz5YP44YcftowRaS+h8576vCCazMRshhXIpgYcf/zx1sgB6Hv00UdbJNU0ei+44AKrTzFKz5133pk67rR+PO+XD6LEZrbwFvNaGjFFQcSTMHr0aL3EEks4+5ptttn09ddf79QZfRV0+sIEaFuuYQAz1teGm8aflPvlg2j62FCoU4jILdiwlI4ZM0ZvvfXWqX1EaSAPA73OZr3BXIZ+mUZzeB+d0fxwAZFlPU98kG+/kefKBxG7aLQgDMw999xOpuSdiT4WGxdTkvybAICeuc022zjpDtvmo0gSrg4//HCvNlx0uu5VkilM6Hu0iISmBg8e3FJXxwsBrocsEYjUcsstpyScQ4neqUT/dJIskqvaaaedlJjmYmMnjQAeVFUqAVFmR4xeV1JM7OFeqnj11VeVGLqVGLx7KBD9U4m3RYmJToma5ASD3JGTTjpJyRLdMgIJ1VCizlQ2qkpAlD0qRvCKK64Yq4tWiBIeuy9egyCjqV2FmThkyJBg1ZDQRCX7bU/XZFmJ3VeJ6qIOPPDARJLEoaxkr43dHzRoUKyuzIrS12vJmw8U3WhBAHHZKzE+I8WaBUsI0d9RpTzqFC5zT0RAEsb2/GEyQ99kf4wWpFGSc6LPRv9PAJUZd4NcQFhJ0jsF68sXbCDItCPCBAQFF7G4bcaNGxdjGkx8/fXX9Y477hi83y4Q6YuPBzOdWe64447EsfAO5wmYRVLjEt9x8SXtXiXLqXSqxCjcshxRt+yyywYJnUlFwuWVBCwpCXAKcgLDgpBB/RVXXKEefPDBIIm0XUWAUOJ6inXnooF3bDmTko6XmOwa6yBjRSVfh9CgX3rpJfNjDJbZHXbYIbVPDNREkdniU6NmtiqXU8bAH+l0ZiHDKrxv+1c+2JidFUuW7dmidZXNRD4kJDLSqaOFFG6J1lbbbrttS715wUwUe6uS2BWF+C57Ss8jYlJreZyZmqfkfc+nr9deey1IPY8WhKOqSiVfhxAbtEvEmikY8FWTKHPMMcd4973PPvtoDMpmW1xntdiwZ0kaeSzexhRswjHkmYm8i+UnWhB2pp9+eu8xh/17/FuNYBN2DMPIJLIVJDaiuJHmPAgNjNrnnXeeNefC13aK8xbbqSk9Q187QPS1y/rwI/JMtSDS0fnnn2/DsKcO2yqMhcE+xJM3iIfAFONpkGylJC8GcT84bs3ZHBJSJoh8vGZMK+Ok3meMGZ+pHkSCen0KOiGM9h0AkeUvvPBCzJ9IX77+xKgHokwQibAzvRuMz3dsGZ+rFkS+PM5W8y3MEjF/BY5c34FwzBfGZ3OGIcVi4LZFr4We/agBvEwQyTo2C9K675gyPlctiIQnmGoCyaQ2S0h00HzFohPqFVZYwWvgxNhcdtll1kTVsF1AJlYmGmNTBYh8uLYQFXJEOnI5nXPOOWMzhLhNOeJS4x3HE+8qAH755Zfr6aabLhVMGIQfkMg6syBEESOzySabtLRTBYg4gs2ALT6gCk95rHYmrr322iY/g+UyXC44VAgzmo3x0RdRlPHL2b5k6rbcckvr/gjzwv3RtkRVAeLVV18dGzNbio12G0056qoFkRAGsxCYaxIqnoNAxDeDnqLvAggpcCSvhO8jqZLXnySpMttdEWdlg7jxxhtbQz9IEzDHXOJ1tSCKjTGTlMaRmEmpcCGgAHb33XcHqoTtAITw/sCBA1MZVyaIM800kzUTmqV14YUXTqWlAKjVgghhZrYQTCZgKYloFOIrr7zSeXyXKYkCcDhTs8TbRPP9i0innIbMnmujiwOWksZaUn31IJpxqDDcJxCJ7CkCjWwqgrnMMnuZxb5MIQ4WuqJMzwsiqQOoDzYA2Toq3AvD8VYPIicymcV1qIIJBH5E/Ikmk7jGBisuKm/pFe9CUq5GHhCJZTVXmnBVQPJmjzTHU8F19SAiiJjh7yypcop+pgFK/EoQ/At4WfVI9maWNduBR+EHhmXJxmAiC8zCR2UzyIcAohtjtLe1V0Fd9SBCtO2sGYzfWQdE6Af6FuEcvssUuRppZ7yRDcyZODZ60my/JsCEmbQpG6p9yymMOeWUU2LLIbPTZ2+0MdanDttq2hlvzGr2M45oSWrTFp5hAhdeszdnMRkm9Zmxvj0zEaJsiSh8tWUPmjPeiIGx6Y5R5qOA+/g0bQmzJogs76QRLLDAAokfQ0ZgsrTTPhBZrmySJrqeK3rMd/D4G88991zrmTIh05l5fDhYVXwctESum7bfKIB8KASFYazwpbOC59oHIsSzNJlSJkyBUQDgu8+ZjECI4ExSV+EDIiV7lVVW8WY4BgWzQCvqCTZd2yESJm1tuG4viMwWRHlbAVxCFvfbbz9vMCXYNziEyJR+o+2H7Wad7cxUM8SCdlFp8n5sFQHaXhAZBPZOW3xpyHiYjjTJ2TEYvTkDAPsnfyxvzDqOvESRtmU1RdvBb8jvSuVhHvFBZmEWcg5cnvYqfKf9IDIYDsIjwNa2tEZB4P88w96T5VxumE3IY978QNLVbIffpoUqVgiU68PpHRDDwZLSliZFmrPBdc3MZHldf/31XYN23kNIsRnWsQ7VZA806e9dEAETgzX7pGtfcwEX3sMnWeTwH/Y5SUOzAshqQKRdL820tH57H0QYAwMlvy/I3i3y4yNEhBNzk0Xw4Fn5iSF90003JTqn81iX2gV4LX8rijwHOTVRiSqg5ByZlt9vIqKcJFaSOeUk4+CXS80is0aJ4BTkGoqlKMh/kNlqPhbUy4+eKDkRQ0nGkpLUgdgzVJCLwa+l2vIurS+0ubKWIPryQKTUIPlGnLGJrxBKLwcFBj9NK85ZJfuvkl/BUeLPVOQ/LrjggopE0qQCgOQsivM46ZFa1Kett7W+T049upxLyg0lXJ99NXyG9ljafU+eEiR7k0+92nkpA+d0Y0IEXTpjFgAJpzjrrLNKoa1N4HY+iCGjOB0Rj0ReMLGpkh6A47hNzC+rn+4BMWQ8Tmi8GBzFgnfBttSGdQAH8NhIOYyvw8AL6O1owcZHouAnaTlIAQGG/ECEGMmICoQcMWIrscAEv1jayaXrQexkcHxprzRT2JeI5rliHGhALMa/WrzdgFgLGIoR0YBYjH+1eLsBsRYwFCOiAbEY/2rxdgNiLWAoRkQDYjH+1eLtBsRawFCMiAbEYvyrxdsNiLWAoRgRDYjF+FeLtxsQawFDMSIaEIvxrxZvNyDWAoZiRDQgFuNfLd5uQKwFDMWIaEAsxr9avN2AWAsYihHxH+Iq6AneaO0zAAAAAElFTkSuQmCC;fontColor=#FFFFFF;imageBorder=none;imageBackground=none;" vertex="1" parent="1">
                    <mxGeometry x="519.99" y="360" width="120" height="120" as="geometry"/>
                </mxCell>
                <mxCell id="20" style="edgeStyle=none;html=1;entryX=0;entryY=0.5;entryDx=0;entryDy=0;fontColor=#FFFFFF;exitX=1;exitY=0.75;exitDx=0;exitDy=0;" edge="1" parent="1" source="22" target="25">
                    <mxGeometry relative="1" as="geometry">
                        <mxPoint x="440" y="580" as="sourcePoint"/>
                        <mxPoint x="502.70000000000005" y="580" as="targetPoint"/>
                        <Array as="points">
                            <mxPoint x="460" y="450"/>
                            <mxPoint x="500" y="585"/>
                        </Array>
                    </mxGeometry>
                </mxCell>
                <mxCell id="22" value="mastodon-gpt&#10;@gpt@mastodon.solar" style="shape=image;verticalLabelPosition=bottom;labelBackgroundColor=#1A1A1A;verticalAlign=top;aspect=fixed;imageAspect=0;image=data:image/png,iVBORw0KGgoAAAANSUhEUgAAAIAAAACACAYAAADDPmHLAAAABHNCSVQICAgIfAhkiAAAIABJREFUeF48nQdgXGeVto80M5Jm1HvvslzkbsctcZrTCSGFFFh+WDbUQLIESELJglnYXZaFbBaW3kKysAmQkARSnGbHvfcmW713adRmRqOR/uf9xlk5iqQpd+79TnvPe875bkIgkDafkGB8JZgvJcXqVq+zmoX1tnTpQlu4YIGFIzM2MDxqx48esYyMLKuoLLPWCxespbnF/Lw+OzfHNl11lWVnpVmix2cDA72Wk5lhtZVV5vV4zeNJtPTUNJuZjdlUKGxJPp+lBfw2MR2yto4++8/vfNuO7dllSy9bYV/51lZbXL/EgpMT1tTSaklJKVZbVWnJST6b5/zGJydtgueqysotNyPDYvPzNjc3Z+NTIfMnJ9lsbM5GJyZsenqK101aV1eXRSJh2/b6NstMS+ec26zp1ElbunKlLVmx0j7x2U9bmj/JPIkJFp6JWm4616C14Lg+r9da+gbM5mJWU1Lsjj0ZidiF9hYLTYWtsqzMwtFZPn/eunsHbGhs1P760is2OTJiYa7t/KHdNhuNWmJioq25+mr7wD13WyDFZwmJHvN4PXzGnM2yJjORWZtijdevauCxBJvjBFKSU6yjp9/mzGvb39lukemgpefmsh5+y8vLtYK8LOsfGLEBzm+aNR0eGrXBwSEb7e+z/rYWG+vpkkC5Lo9xeuZN9lhKerqlZWXzu49LmnOfFQlNm2fhyg1bg0P9XDgfPjtrweFBi8zOuQUv4sIzM1M50Rnr6x+0ugW1Fggk2wwX1tM1YCXV5Vora7nQaCePn7bJ6UkrY2HGxiftzNnzNjw2Zm093dZQW28ZqX7LQmgZaamW7EuynIw08yLYlSsvs1df+ov1dXRZd3+/XbZxg+XlZPG52RZITWXBEi0J4Qb8fo4/bcnJyShYpmWmJFsyyuVHUOn87udYCZaIoGYtyvkl8M8fCNjQyIClobgxFKW7o91mQiFbsnKZfebBBzmWD6EkW5T3hBBuJq9v6+1D+D6Ol2R9LGpRQb4hMktgfYLTE5aTnmXlxcXm5XN9HgTJV3Bq3NraOljkDAtPTdjRHW9aFMVLQJgLli+1z3zhYcvPzUZYUzY2GrROrnWEtUniM9LSAqzvrFursfExW76kwYaCEzyejmCH7M9PP21dba1W19BgGZlZNofShTj26Mgw32PIMdFisaiFJsat+dQxG+vtcYKXYDxcn8fnscKaGkvNzrIEDFKGPsO1+lhTD2vmueHee7Zm5xdZP4KSAugDJkaGLNGbbP1osxYxhzcnsfCjoxM2NT5t77z6uqWmZlh5dYmtXrvaFi1ZhMdYZtHpqO0/eMg6W9usIL/AWc0R/r5lyxbL9qdaCtafjJeQsnk58VSEWliQY/lotax0oKvbcgrzbOWqNZbkTWKRfXgRj/MaPhQhNSXgFEEXp+cTuRx5gTCWJEWcYSH6WbTZWIz3evAE0xaTMiTGPdOx3Xvd8b77/f+0vPw8FHmG989ZKteWjZeS8Q+MjlkmgpQJhFmPdH8AL2Z4t8S4kfCqJBTYw4OhmRnnYeZimAuLPjowaC89/RsLT05haUm26fob7POPPGL5+TluXQPyhJyPl3PPQskzMjKdtZ89e8Ha29tt8+ZrbDQ4bqcbm/Fg07Zz+3br7e6xRasusxSMYTI4ab1dvZzlvEXCUa5z3qZ5XU9bm53et8cmBwYsAcueZ90Tuf7UnGwrrq2zJGTo8yWjxKwY6yQlSOT8pcSeBWvWbi3FzVbWLrTBgX6nwfMs4HAv7hO3aAlJ7qRjfNgAXmDH6685C1myYqktWFRjk+NTVlxYaJXlpZaKVV+2bp1VV9c6N3z2dKMN9vZaUVG+1VfXIDDZJYuJZTgfI3+LYGuqq+yF51+ykaERu3DurN38gdssG22fDk9zDhGnOAV4Dz8aLUvU33MIbornJNAUHxfCoWSRaSyUB01P4uL0Yf4AHiwatjdffMmGenrtC1//ui1bs4rXz1l2esAJNYlziOErB8bGudZZLEhWNWt5KH4Kx9HxpQzeRLwNgtV7PFpMjp/G8SdQtHmU8Omf/Rgl7nIu/p6P/73d/8BnEX6uW88IyjI0PIwXrbOVKxZbVna2LeC6s9Iy7cjRo7YR4cuN79q523Lz8+34wcPWeOak5eYV2elDe61qwUJbsLAOi5+3HMKuvKJCwPnjx+zM3p0WRekSnVVzvhmplolMMjDClDQ8LdcQIVSEJyZthnOdI6zNhMPO0D1X33rn1hAxNJu40oDlhcIRmxjDimZmbRR3GMQ15ZWUu1hy+thR62o85ywsFzdYX19nRYUFXHDcqssJGdUlJdbU1mS333CD3Xj1lbYChejGVcXmZ8yfiruzmEURniw3qm8WdlLxuqPTTh077k4sq6CQmJcHnhjAQggXKEMGluJidTRmSQg6FfcVkCUiLAlEioWjtmQu1s/j+gqkJOEZYjaBVT/7u6ft+lvfb5/67GcRHFbPc1FCXSYeRUIeJW6fIpQVFRZbHhhGoSFFisS3FHeW61cYCaAMsyyGzn1sMmTdA0PW3NJuP/+vJ+0c6zPPa7Z84AP2/z75CZuZCVtwfNy6+/rce7VuWTk5GEfIecIAMf1vb75ppZWVlp6eah2dHbj3qHXgQT1eriUtG+tN5TgYAaFzjHUcA2uMjo5ab2enHd+z25qOHMW7xCwxKZHXBKxicYMVVNWaPz0TY550eEShUYYQJvwl4MmSAukWHOhzXs2zcNX6rWePHbJ8CRILW44SpPCCCO5ULxjt68Xye5zl9bW2oklTloxbXLBkqXXjnuRK51nIAkBKBVqHPPiAFGvFEioLi6wKQdYAHGcUk+RL+YqigQJdTS1t9u1v/JOVoExLly63P/3hORYpiicJ2D333WcpCKdvaNC5qwKscY5jjE6OOwwhJXB4jX963CmBUwT+cQ5SllEWYBLLOH/ihG1noS/beIWlskiClHLHip9SJC/vi/G+fK5B783wpzhF8kq5eFzHT+bzhDfGcfnTWLOeG8fLCSfsfvsN2/n6qxhN1OpXLrcHH3nUMrmGFCkRQLaooMBqq6vwegBiYnsSBlOcm28vvPKKlZdXAOxybHR4COMLWz9eVjinFCyVhyfoI6YXV1QiE7+NEx5CWPBQT4/t3/a6DbV34vK5di/Hzcuz8kXgBN6juC/wqWv0p2Xw3gAAMMvk6S+74nKrwXA9yQErraszb3B8FI2esxPHTti6zVdaelamrdq43rKLC23bC887VDyCMA9wIn5OPoWDauWXLKkD2UdZxAQL4GZi/Gzt77UAJ7+opMI6fKl2EXRckpPukGoGCDsK2tXzep8sTELs7exxiHfV0iVYQpk1X7xg506fAv/OW3VxiZXk5Quw4jHi4SslBQzAFzjWYQDFNOED9ysPusyAb1lpL9aZQ6zd9e5O8yr74DzXrlplx/A0//L9J+zJJ//ThY4Z3qjQWARSnsFjCFBEHILneFhtbD7R0lAUIX6FwmQE2IM77x8JAoZ77M2//Q2sMcfaBJzlV5SVOMQvlB/lOwdM0Q0+yOBnAIU4ceKkHZs+6cJbXVWV9Q8OWndXH0YRdh6kr7ffhvF+eQVFNhEMWgbCSwEwJhFOzh47Zsd3vmsxPPU85x3IzrQ8lCiZY0d57xgYKAMA7eX10fAMRpTC+zMsrzDHqirKnbctKioyH88P4AW8N950DZpyu50+e8aWgUDnufhhMoHqmmq7+2Mft7df/qu1njvlrHcG6xeCXLBiuXvN4iWLcZlFVouGppISyp0HkpJRmkQbGQ86awzFAnam6aKlpWcT99BGXK/cOfpib7z1tu16ewcW9A6olPdzwrLqMFre39djhTm5WF2KTePipKRy9wJssvYQMVqv9TtkK+nzzQNS2Bj+ejqMm+WY01PTdvTQEYeMX9/2KnGz39556w3LLymyZOLpPEKdxKrHQ7hZrlHZTyKPp+FldKxowqwDlz6lVIQOpbPnSbWUxsbAC//7m1/ZJG5ZnuPa2261latXufAigUUSZwmHF2y2sMThhIxAmv3sJz+1ItLYiqoKK0uvQEn7bGhw2KWzTRdbnMcShvEThvoIwZnZOS50CHg2njxup3D7sxiUztufnW4bb74Fd+exprPnHIj3AN6jyVFLDoCLUNSs3Cxb2rDISkoKsJo5G+wZsNcOvGodzc22fMM68zz89a9tDcj1NyyxxHmETAw6feo0lpNhBaRAay+/nESSiyEVnAZEzPMhI6Rrw2NBW7RspdOkbNBsrrQbJdBKhOQZkEc+ri2Px+vR0ARipy6ihDRKLreprdMefvgRmyQFBSVx8gBOyZBFD+CylqxssKVLlrP4WCSP+Xm/fkqpkvgMYZII55KE+9OXLF9uX48LHCqDSQPkDfUP2LNPP+Pc8SNf/aqVl5bYC889a1NYQgOKXE78lXKlE24UlsbIjTN4rQQuRJ0I8PMRr6VhEzx/BrQeBPjK3T/zy19Y49HDLpNYidf82Kc+ZdVlpZaNp5GXkKufwq1ngmGiZBx79u1zWKCM9aitq4ZLKLXO7n5r72y3QgwplTgdgRfo7exyhpal3B9liqA8bY3nbf+b28i0Qu56/VzbUkJaHorsjHMybN0tLc7dz0RJ85BFOqC8BkPO4OcAMhtiTYbgDOR1/ZIXr/U89OijWzNAjUWg7DFyyQOHDjhfmoar7ybWJEEirFqz2pYuX06q0uHAoRQhROhobmqxLEJFGu7dpU1cZCJxUnlqJrE2g5NITiCLRqrKsce4KKH3JGLUT3/5lO188y2bdReEa33PqfNaxeno3KxtvPJazomshFcI7Qt5y91L5F6ELZAmhVEeL5ctoU0gwEOgZ/nvdH+yTaGoL7/8N7do99x3l7WDO97dvsPhhS4Iky3XXQdRxcIT1wdGIVeGB6wQwkQYIB4YdHZzFkZwvWQJmKPl4VJfe/VVe+1Pz7H4ibYOIky5vmK5j3NKQ5miKK7OfWRk1Fo72lyuXwDOChCTU/m8dMJFDyHy7JlzNoabT8II9b5kznk0OGqFpaXwFwA3PNgZZHJm/x7AnrKyBMsiq7r69tutDC+y5403rAAZ+Dkmi0/8Jwvg91ywV0lJKcBxiNSxG8HjZVi/PLIKD+BTazo8NIAx8mt6IMPe2rvbVixbTcxItdLSMjt39qxDz7J2g8wo4OK+9LVH7WdP/tTaEcYYj7ecPGndTRvsKLG34d57IHsCaL3HLaaIlKRLVqTPEPxTjG0BNDU3tdnTT/3eZnHTzqYTOHEUQ2hVJ+ZnEfxepZ39pES5znqGRmfcT6VUY2QmYd6r1CyEO6wB3EgBEgCXcyyQPFcAIBtAiELcBbjg6dCEJQFeJyamnBfRZ50+fMxe+dvLdv/f3891I3DeL/c7CVqejkwTGlBoFDgH41B4SwEHxDi3IVD9Gy+96LBC9aKF9g+ffQDeI88uNDVbcVGBu4Yu3HcK4Ur5fjExN0wYUVpdAq5Rjj84OOA8RxoMqh+EPx2aMU+acvMEa4Co6usnReNaju/bZR3IQgcV11C3vME2wi8oLEXx1uuv2gK6D5MpTJqPeB8DmMpLDMEK+kgJcwijXYMoIIabgCcrKiq1arxP765OznLevIrd8yxeUpKHA0WsmMUTaHOpj9K9nAJc3iRuLM02b1hvdU/8u333u9+3Y/v2oxw99vL/PA1wzLEbr9sCsZNCTE5Gk3GhaBuhlKNoOeIuWu5aYOq/fvVr4uYgjmbWpS8+lCYBoJWSmoJ38FpFdRWxr9AuXjhrzc2JLkWcwJqivCaTECIBjeHydOxMYuXZs43O3SvfzeVcZlhoWYo/OZ7G5RVWwi+csJ/+989sAK+ms4oScsQb/Pg/f2g33HCjlbAw/VDeYshChLsCjqs0cQhvJ2+RhQcbJ6sQg/frX/4a5rKd686wD/6/j1lddQUIHoXE801Nz9iRjpMOr2QBqLNQ+nMXmqwWV1xOehtBaGIqM1GqOTxXCki8s7vXBoc7CEEz4AevlRTk2igKsvOVvzrho2fOstdtudbWXnk1htFnIbBCZWU1z3kcVhDpluIPE17KHXE2PDzC3wHnxar4DPEAPkJbOt618XwjvMICKymrNE/54gVblT/WV9baSYCgGLyenk4En+1i1ZrL1trFi422Cu48BY2qLi+1q66+wqZYpIGhMVwsdCQx3EfIyCDHLSnMd17Ai+U4wXMCA2hlBxcksCJhPfHdf4ctG0cMZqnkv++/6zZbiGbfeufttpifxWUV1kqKcw5SqKsDihgXFkGDFbenUEbx7QnhSUuB4MmfxbJ7LljCud2W1X3Eoqffsbm2fTZ/ZrdNnthtwyffsJK5fttcHrD0uWEbGQhaxbKFeI4Ix5sGGGEZvkRbtXad9XFcxdMA3is/LcvSWLDQLACR0FgAcZOCAv/+f/7Xnvvtbywbi//SN79pSwiNQcKMWMcuiKYWvEBtbY1tWrsKcFzuUlalZGlY+QwepUvZABihtCAPEglmMDaD8GZdbB5FAWN4miP7D9h2PMwgWEAhLgXl3nTTzdRL1mEIQecny8rLrLKiwkZZ/2QBaxR2DH4gODZieYQEpYtJGNtyvEk2xjs+PmE9HK+gqNDq6urhGNJJ49vNmwfQoCBErs0H+RNhrrJsDUi2ta3domjkhQtn7Nabb3axMT2dFIyLKUFJ/umxL9uqlWvsyf940tovnrHfQoREIiHiI1w5McqDZwnjQWT/iofJ4txBzc89+yygZspdaBIKlU1oibIIyeSl50Gyo1zARHAKsFZMEQi3DKBJJv7OdrXawrSQ1WXOWmGuH0IJJmssBmkyaRe7x0g5p6x1DAsMx2x0RmSTGAK++F9i4rzlpoBlSjPtqtVFhJVpm4IoOXAxZu+2TdjTv/itLV2zhiLRGndeokyj8+AKwGR+RrYVZec6b7h79wH7zY9+5IRy+0c+alds3uzqEwNw+CG8UinnfMX69XhRsADxOAAFnU7tpKA2zUKElxYsV3iD07FhagJ9xGAxlgp18gY+z7y99MzvbIi0W58hHqaG8LuG9FygbVq1CLxKAE5AjGc2Qk/AzYqmF+DMQKgh1rans9txCCtXr3YeJSejgOeT+ZwhO3/6LEbXaUkY3jJAcMLLu96az84rtnff3WGbNmyAM4Z2BUCM42L0PcqJ1tfVEIOHHEdeyoEDaFYysVKA7uCJC/Zl0HzzqUMOeeZAevz3z39sl6Otcj8zCK+dCyyF+NizZ4/94wOftzGsIIYHqalfZIUg4Wm8gXLsKVLHjtZ28tUyV92rSpi2q2vR4stwVRytfSxih0902I7DfXZ+AAsmQXAylhWD2BUSRJWKN9Bf+nK4QvgiAXzAZ+hxAbfSjGS7ZXmxVWCJnSNh86y/yR75ytcc0aTjaCEVwgqpUwicXQDwfuzvPmr9MHB3/f0/2Jcee4R18Frf6LCdI32bQ0HWLl+Ji01xgDUL9+vIKRRxgvCgLEN0cyeEzxDYShTyoeNHbQTP6EU4WQDpvzz3v7b3ze0uhOWWFNqtH/qQ1VJnGQUkdrV1Ab4nyAyy8carMMZ0SKMBGwZkihKOglnKqmpc+qmKaUVVlbuOVIpwKq4FxybsVwDvUVLOktoFtgw+JBqeMK/ifQ0fvn7tGjKAI7Z61UqKHFErglkqRtjhsqi1tLfagppaZxnTEBACeEq7lO+vXLrA7rr3bnuy+RwnEXJY4le/+i2AcqllpaQ61F4i7hoP88ILL1IwGUBgMZjHPKuqLrWz55qIT+TgaGpGwGcb16+wsoSg3bu50EqLMu1s/5T9bnu7vbSzyUZDqNQly1YBZo7QkzBHTsB5OGKInxK2mDGlq0lJEDMAtNMnTtnBd7c5TyCPIKKoIxixn+5sxzI67cqFRXZlyxE7/dpfbdFVV9sYnq+xqYnCU4DFy3RU7C9/9gvrxzI9pMQNCECGEgQTBINjFkQJMjPzrI+cPuAvxXMlOdCngpeykim5Y0LBBGunVDkVC4ZRwpqzbRhQrArp0b077RTrLyi88cbr7YobroOLqYP9g2MAi5SRFcitZ8KIjsA7nD59muglYmrOulpbrK25ifJ3j61at5bj+QnPveCO2jjLyeK0t7fhWdqtG5o5isybUL5YFGr4VHfrvCfBZxchN1TCncN8JvjQG6+/3pYvXAgjp0LJnLN28eHyTR4WUIhYbkpWPo0AO1mc/3n6OXv2qV85UPjAw5+zT33sY3DnybCEc3b6/Hm790Mftb6WFoeeS6rLQKMLbP/bOx1HvW7tcpSs1NbmBW3Zwhx7a3+7PbOtyYYnZkgvAXVK8Dm3eTIG3u6sXOmZAQzfA5o6Hxn+/JzsnnPW8xA5ipnzsfdepZfIn0iBnZNwJNF84pzlkIrd1FBna27YYn449SWrNllNWbG9s32XPfjJz/C6ebvv/k/bY48+ikApPRMmRA8PY13b9u+1TSuVRc1R9oZWx30o9ZOAplifdmjzHHBVFUY1jJcZISYHwRYkO/aL//6xDQ302NF9R+ymD95p11Gz6IFVFcUuGjwzM93KikvdOQ+TqmYQvo4fPWm90PRLly1z9Rjhi5/86Me2lnL6Ajx2EWzkLMxiOe+Tl/jDM3+wA+++a5MQeOk5eVYE/5EBrvF85NOf3qr8/xzIcEnDUqsDwORkKebNWxFAZwr2T/RkNjFnfGrKpshLh9FAuRahY2m5PEIhAPCqK9YTgz12YO+7duLIMYvgdpctXQoQSrYXoUvffn0bbGIYWtZrpbj5YVwYq2qFYIr60nLbXEoBanrcHv3hXjvYPG4VpCvVtVVQxCVWWl7MRRXDkefj3kqpqlVbYVGOZWcDPrNI+VJJHflOpQ7hGi/geJNxO2pakcAFcqQqcsvyFAJm7vxZYBcu0KhQdN5O9A7ZgSPHrTI4bAmsQRJM3ONf/wZhKmirN260rd/4Z7cWsoVZ/qVD7abxGfJAM4DSkrxSp1ApHgpSKEEUBZDK9UEdSxHAx2QUqa4JJInHd7/9lr30pz/DFEbtenL7O+75oOMIonjhbrIDpdTVVdWOeAqw5sIKJdRcsqB7dWzRvEmsoTxDamaOdYDd9rzzjqWCxURDN8HC7ty1m3Qzg5pCNbw5mRafH0iF9iYMewvgktWIoe6VPARfQu26DnczROGhk5TJi6bPQNGmcVLtlIjz0R71B6Qg1ElYLlXe/D4xZiwjYOQLX/qEZUI//uDbW+2H//Z9R3M+8OlP2SvbthHjIVIw3wBgJUvdKWQKXhaq3D+P8MP2220n7cJIgm2GnFm1chFhBgoYK5D1i/WLsGhqoHAdNYhghtw5AgfvKl7IcIbFSkTwqtELuygtzcS9DlJF6+gccBU2dfqoU2mKGK83iUcIcx1FoGO5WLnrXl77gzf22F2g5hd/91tr7RuyKwHC3/vX71oR4UxKlIyQ0wF58itiIBdXV1s38T2Nz5wlxE1ifQHChDKH+dmILcYdS0H6UQRdUoznh/q7sf6fWMP6DXbb3ffC2AnYZQKWUSS4gwLYwXYqhOOsm4DeDO+VogbxHsVFgPeM1XgKwLnAYGLMrttyubVD8XZcOG873/JbUWmlFRbnEa78pI0ha21uRU4eMrdxB9jfd9ed5rn+zju2dpBqJVFk2bVzl7UAcrIBbGrDmmJhfQhYLleLn670Ba/gNJ4HBYAwJrQ/Xh/XQvipBTQ0LIQ2nbUTBw7YKWrdh4+fseZz5+lamXACWrxkCTkoqR7Aqsg7ZbevK7ERXPnq6+6wFtrE1I5WVEwTBQqSxcX5sWo1h/gBUqJIk/iMCRQ0D0vwE08nWZBkVwtPgkufJrPIxS3mO6VVppHC+wspVa9eu9RK8CT55Nk5ZB+V1VXU2Be479Wrl1sxfPmylUtt0cJaV1R46+hZy4QJvbqu0u544LO2smGlE7arOl4KH7Ju/a1qoWjYJJ6Xp1G2JL5ewLOHDGqIDh41l6TxGlVBM2BD//MH38frzNoDjz1m5bhsMbBSKL2nmPOXAepLTTDKiMph9gp5vBk6WhS8kL+6r8JgFNUBEnjfS3963im1agJKVYtR7I6WZjxKxEow7JIymFvW1AsppP4ET/2qVVs70HQRDV38HMZalHJMAHB8PJaCsGchTYYRdjGuOgumUCSP0H0ILZ6gDSxdF84CyMm6+jy/L6K6N8kjTedUpIBQIQVSNbC0stwWsuBtuKpVNcl2VXmGDYTH7ZUTg3b33bfzfp9LQSUE8fDT5P7DY9Qg+KcWLrm6ZM4pg0YK5exy3+P06KkiKXCVR/UwQfw9C6Tce3BwxNo7emmfCrr3iYhR6pVHtqIWqUlCmtgytV8VoBgCkPnE6cqqcuvq7rPGjh68BqXiYL9lL1jC8XmfpC8F4DsOhuPaEFeKeFgMYQCTuPxZ5fkIWf2DAyjBIB4x1TNnr7z8kr34x7/YI9/6jl22FuCNR5JAlaHkEpvF3w9B5uSTkWWRx9dW15CFpVsBnlNWp7AqDydias/uPXbyxGnbs2uf9XV30VVVSKqXFq8h0C102aaNKLzCOSCU9/gIW0mshSqGnoZ1a7ems6hpCF0YoLa+Ph4nWQj18GUTX5Xbz2LxA7i4PHJi1fNHSTVEdSpeZSWnogAqmOhL0ZGaOkqxbOUKS2XBzpw8ZkG6fWZx0YtXLHNVwWsyQ7a5LN1O4l6ffP4sggjbyrUrHJG0c/dBmk8rbdtrb8Fljzg6VV9RUKjYvkwuzstCaSG8WIbSKymDCj7qs5Pi7Hh7u2ve/MsfX7a+nkFra2p1SlIDppjGGmShUbyJlEbtU5PgG3XZ9PSp/4DMpTAX5QvbhbNNVllXZc1UEc/v32XL119u2SiMviTwOKbQVWPppLHD4CngpXVT4m3v7nS5vip9yYQDeZUZmm1OHD5gP/7hz6i2/r3d85GP0NOIl+V4faRzGay5sIOuoxChqa5STCiQ51B9RdVQlbWFx85fuOgqm6Wwf348uBphl5HF1VLvX7io3mXT/4jKAAAgAElEQVRXXgQtDy5tzQanTbEm6isIAvRTOY5n7VXXbi0FgJXgKnQWybjXDsKA3iSKVguUD+rMVsGH+NOChg2OEYsIwxPw6yXZ+QCeuPBlB879sTJylRlQwssXL7Z26v1njp9wLNQqSKY1aZOWbWP23ZeP2dunoIQduocSpnybiAd4d/tuayG1yQbU6XPUwSIgF6EsPDhC0+WRU3aCJtRzJ0/bof2HrBEC6SIZTHNjo52mPnGMLpnu1m4bhPjIRQEVxuQNhAuGh8cocvW5kJEGGZKIF5CnUyqmnD0XjKP6wdGDx23fngM0bBRbR3u33bx5lZ242G7HDh+0TVdfCwiO90W8pwhaO1UNxb75CF2qTcxgKFPgp/PnL9Lb12lVpL4H9u6yHz7x37bp2uvtq9/Y6iwyROtbZ283RaExF1KLoIzl7dQFLaWsBcmrc0lKL2Wf1jFJU+XCl0PmqHBXB/JPR06LFtW6PssCvFhNXZ0jtkR5V1VVka6Oka11kja2UjlsIkQUqE/CZyMcaJh2bilCQaHq4MQh3H4hBxEHn8AJ+YkpqWihctx+yItM6vsq0aplahawpkqd0i7XL4e4lLLIPSsvLywtsA/+w0ddTj0JkKxNGbL7f30CoESuzoWmpII3AHR/fI4GFN63YsVSED69dBxJdGnrhRaKKyPWgzsOw4bNkX4lgICFQ2RV4if0ufrSpzoyCKsbwyIF+OZ5jRpJ5CG6wTtqO+uCslXxR106olK1DureUS0iTOYTjfB+lGWSGFtTWUy/RIvd/L4b7ZXX99rPfv5TMoNvIiy5APARyFyhQKEhRWVgzqcCMJ0MgO7o6LYpPOddt95g27a9Yj968scUkBbZo49/w7n0eVrlZsEDeYDLCmJ8phSLY6YIe2USQqk5uI4nrmuS8LWHhpAjR4+7FLMMWr6ysiKO1TBWNX90dnTQzl9rp86cxbP5yJbI6nLyWZgYcoaQI5NK5jq1PuOko95je/daAzRocXER7oraNPl8PQydmjzVvSMU7XriY/TEt14EiJQ7NyVXlMmBdHLTVOnSUIw4VyB3HM/VL1LE+fPzf7JBSpG5gK7Wxia7zHrs9ROtFsbq5bbVoy6Xm4am+72ZpCoFtpYZAeGGI1j5/v0ncMWge3JwH4K/Z2WWbVmSZXlKiTiH8V7wAS5/NpG5AGjgGS56lvRPadRMBHwQjEIvU77GlYZIi6YgYyJJ5OZY6AR/j0AuTcPlTyFEHUfFJdXgFYMzo7STE7tTEOw4bF5sfMS++pUv2Be/9Kj93Yc/Audf665/gLZweRlV9CZ5nVrUiebWBKZK0jl/8DZ7643X7d+/8wSVvhX2re8/aRWkwbG5qAsPCqV1FGakPOp/aKfI5qyd8zt+7CRkGuEABelHgH2EIjWNZOVmuppDNrJQgXz3fuofpK0X6BsQR1OQX2gHDx929ZyenlOWCYVcTtU0n3UZzBmgupuNIQ+Zd2x43E4cOmbb+dBSqlpllVV0kCwhplDRwxoyiRNyZ8qXS4pKXItUKmhWTY1jEDgqEAkBy+pZQtI1CkMId8fefVTNfm4RPIj48NF+9bkP0mo2Y8/t63c9eAoTUhYpgo5bSK4aGQ/ZyWOn7MyZiwiRmI+Spfjm7caFAbtvc5EtKk0nG6CdaZoOmp5JOz81Z63dI5zLLG6ZhSoiH0Y5En0AU9LNzDK/lRJGctKTzUPZOxxEkBRNUhLJgcnE58OEGBaOtkqLzMGjQ5rsbu62d9t7zUOJ2EsrejdxMwlBv/TWPnj4fEAdFPjRAzCZ1c4LFCqnRoEAKBbC+icpOXeRvtWVltlyQO+LL/7Zvv1P37F1NNd84zvfsVxA2tQUNCweQteeAbD2o3xiOUdRVKW5oyjl+DjnQ/jZTgoXA0x+8Pb32fuv30KTRw0cQNQqaW7BWQA2pwF2yYQ8PDN4rZ0QXltdi1fvdx60mXCxGHw3QWUzFYMuI6zloQCpUAAJAAPCr0q38fQjGVC3bOMV9onPfcZqaTjIwiWpM1fNFgJ/Qqqa3EnnpMfJmT2kdaJK1REkTVZf+5+ff8Ge+dUvrJRmz4RYGIIClM3FzBBmPrIk0770p0MsHJ/pwJE6buIDCx7o4DFy1BDZgh8lkxVcV+2zv9uYb0tqWeRogp3pjdjfjgzay4dGTJV95cXYiqsFkEniUQgJFFU4LccW6kueWi9VkqVvxWvx/OIu1PaRgcVkQB5tKs+zTVWFtqIsxQbJTH61o8XeaAs6POSnq2ee/DyLjOAzG9ZYS26RLb76GrsM0FWN0YjuEUvXRuaQgBGspogzDnn021//hrX4nX38M5+2Lbfc5K67jjLuqYvypoVWwxqpaUahy7GqhN6m7m47AdU7SghSP0I6Qs1gQOcaKrO83Y6SWSXwuGh8Dz9bYHFPEBrkhRYsXOQAoyqMjfIGhD4VtcRH5ZLe98EequlkBoCo6mPCx7/4j/NdaEzz6XM0gIw40sWD1n/i4Qft6mu3gNxDKEK15UNQBBG4TkigQj1u08RSHVy99PIUs7jAJ3/wA1K+Tiwlw/bu2MmkC1YCEdEzMGqbi3H1oUn74S4ICbIMWuYQtHrtQOSwUrMwccmATi1GddqcPXRjvm2og+SA7z94bsx+eWDQdl3EclA01bxlPUL8CfyUXCVx4YZZiBeVqPWlIQlhAlcsEsLiPwn0km7E3wZOUX1CrxXtvZJq4wOba21Nbaq9fLjDntjNtA1tb6oIxrjeGj/KQqNKd109JEyma4j9wqNfds0eSQDZMD0Be3HJP//xj2wcmvixbz5O2XiZ6/yRGhbnFlgvKZ4aYxeXV17qSqaVjVDaRi/k6XPqg2hjXqKWUEHfIJ3CdTXVVkrrvqqIWnuVd48BgjV/MQhtnAqeKKSlXdlIKkY8Af5RC5i8SjrGKbDLZbrHh8lQBKBbz5y0hO8/9Yt5XzLxFDd/CqR+ZN8Bhht6XHVrw5ar7NGv0bZNxSwLAYfRTsVsAR513KqjRUCqmJLyDLMF3976LXv7ldfs8muvYCEC9grFnw2QL209Q5xo2D69oYSO2FZ7rQMgh6IJJAm8KY6qb13TPF4U7lOr0u2WlRBAeIT2UXrv9o3YcyewBi5CaaAl+Hm91xbkBWj6DNlAIt4CIKWOING8c7gCWb+O55RC3ATZhcKMBBB/HC3gc714tnlc+lwC9QaUaYJy9Bi5uo/awAPr8u2j11eA/kftqy8yE4g1iUkTc7iUZhO5+0EUcQ6L33LHbfaZf/wiGchh+/Pvn4VN7KBu8Em7/qbrsbwsriUJUokmVbzbGDFcXk5rKWyULzDIeqiNva2bETO8nyaGlFXoOpSi5kP9KpQeOnXKNbuOgeg1zhbErasLSc0kvaSRyohyIYDk9bRWo4Q0CX10AD4E5N8FKRQG2ArkC3t5RwbHiHPxWvbma6+y9cQpdc28Rbdu85nzsFU/ID9fbbdQHCoHKIqNm+KDcyhQjBPrYixuFI18/CtftaMHDlkyIaOJli83BIm1icEaQllYbvNw0a2jofjv8sRopAdrVulXY1rLqfc/fHOxLSgBXFLTf/vkmH3zjX4LIrf0inWWv+xOC+RWc755Nnr+Ves6+SuHVTLmAF64PSKqc6E5aT6bGAoCoqhT8DkTuDt5C55maoYuGT53iOdTMnJcoWkI8CssojQ3hZiZnltIphCyJ/cPWcfAtD12R7398LYq+9prnTbCpJTy8HPEXS9laNHPQuxvv/hXYmsdKD7dvvTlh62BIs08lUM1aKofMlXMHecgLkPDtqoiimkVkznE2qQSw+c4XjbuvgCuRdnVCMJtRSHy4B0UaoXFcqhNCDiOcV2SRRuoX4DOh8TVGiZSaxwvMUrRp/Vco7VTC5BnnyV1lMJrMERja+o6TqKm4VXnaDpND+dOn3ETKkuXLLbVkDVXXHstJMN2e/ed7fYy6dned3baTR+4zW7ccg2TuemAqnQXo3vJqb/1nR/Ynu3vuj74XDWJQizJ3SqXVXbmXKvETpUuGEGaWKKaR/0spF6gLpaby5LsK7dWWD4/g1j9T3YM2VPHJgBEqVZ101eteMUd5mMh1QDhwfry6j9nsRs/RG0Di2fh5ugQmp+b5hymrPfV3+CqDzruXwUhFVEUJmYJX2HAYjrhJ4bHmQd/qN6QXViNNXCic8wKkl5NqUnTz/QxHuUFGkZm/3TBvvqBGvv+bRW29dUO6573YZEs9CR5O+FPDS+KJbfdfAM09lKXDsrTDKMkaXAY6u0TwhfOEsWuMDQEEMUFuCaZGBnPtNF1jTLN473CZCppGUk0c/gdXhjmfIZg/JS2qVlV3VFy660MpI5jzVN4wT5mO09TITx/+qT1UPKdhNFNIHNSNqUw4EHB0skk8krKXLVWk0biFLzZUI2K4QUMiGZTTdJ4t0BfVXGZffS+e+2G66+zHTv22xsvv2Dfo636VZpGFi9toFN4JaliuT31s58T63fhqhJt0colVkjaUUKKc+rEGcfFywICMFgiYeSXonyo8lN1sarJM0T17+aygH35ljIrqMYa+iL2z3/ttrea6G3PoOp3+/csb+GVDjwpd9XaaoIJtTIvOEOzcHj3OKbwwUfwnVpELYJ+Qs8MwotS4AGMxWaw2BlAD0AuCK0bxvPNg7hTudaFNz1qc6mVHAMwKZjgFi5ijW+8aEOnXrK/dcMnvNZqX9hSZluvL7V/39FrzeF4P4Tc6M133mGd7Z10EYka5vxUClZ6J4IJyxfmEFrXyeOEXFONunlURe0g7R4cTrT6KhhKLLgfbzmk2oevCqGPu3ArYkqgTkUg9VuGUYDjxPDt295kvm/E3oJW7gLpT+JZ9CVmU4aSCvOXD7eTV1BqWdRHpNAKt1OEFJ2f+BCvKMTycgYwiCuKNYqhck2y2BFav0XN3nfPrbZ2dYM9/Ydn7ciundZIg4X2B7jhui321z+/hKufp1t1jdWDfKdJb1rp+W85d9EVRvoHVMEiQZQW8rc+2E+YULvZ9NSYXVMUsIe2lFgRwu/oDtvXnu2yYyNYSuFya/jIE5ZVsRRDwcoJCarZe5KJ58IOHCsR4TM3wt/8DjRQPUOeJbeh1nKX1JBSzjE0yZCnJIDizYtA4hhSHuc5yCpCI1QskhhvQzQqtSbQu5AAV5/gidniOyutcY4GzaZn7aU26vPbu+zhGyrscb63buuwpnmv69559YW/OIVWGVggMkiIHKFNrBxByzUI54RZfPElGqGXRyjFVYs3CcLtq2dA6L6lpZXqHqkygstipH2U/j+1c3eCyZS1qBU+G1r8PKH5lRdesDbIHgd2uaR0sMRNH/4wwi50rV9NVAQXLFtMEawEhZ90ihECY8yjPKr8auZzTJNB122+XJ4Z+lIvQXO4iFEoSAEuuZk0pWM8t7qhwQq/8JAdveYaKNJ91t3War/40U/dvH0WIFHhYwiSQsOQI+Sjk5AMaQEukA9TPusBLGnoZBZXJFJmhoXYkB+wR26vgGtPhYCati/+vssuTIAbCpbZivv/27KrGxAK1ggfEOPiJRgP7juBE3JZBOmehO9JkosjpYM51reUIYngr1RJSeLcrBhJoRB5Hx0n/jyJhyWmpDObQJ0BXmFeiqYOI1ZUx88oK7K693/cOrYX2+DZX9qLzRctZUePfeGGanvsqjL73CttFmLNQhMh2qsYRiHW1vNudT7PXOrIneb6fXiJCF5Ws3+OVMPQNCHFmbi0ep7rUEalBtlqMMQAKL2tW8MhhCSFCX4KoA+yvmMUlDovXGBdolYAWZcOOJR7qV++wm689aZ46fhim+blKJyR64MxhBlUkEpOyqZSOOM8iSa+sQlCAKBHshehMYDwQrjMAQibYubSshliUMxR+I4mRKCGc23LVZeTkpRbM1WmU7BULaQsBbRUB2kSUbNITAyciAs+YBIGT7UF7YJhWJ4uaIoYHJ6hpRnS5sEbSmzh2iymZ2fsod91WHsUUii1xBo+/ITl1GpMjSWS4Gmb8al1BuVUXFO8VsOHunygGcRyYs00aDBmIBcuAfNSd96Kx+53uV95Cn6nqQgXq59SGs6Lx1jPuKJoVVhRsWqxsNeKluexPrdZGiRY0xvfsj9faEXAHfbp9fn2yJXF9rXtZExYoN6Wi1uXoLNx0/kwdEob5QGkxBomTSe9dr0IGI3zFsRnYaUB1g59o+qnkXjNJPoo9LS4TqkmcvkWGjk7m5sdqSbvRwHPVl22HuyW6dLwXgyujt5BhdRpeXEuvALWT6mt2scjAFopUTrgUv2Hko3GxGOEZ28Q3ltkgkqVzV0dtmTBQltcW+ssR25Hwx1K96StAi0JuMlymhWK6fxNpZnjN7wujGV3Q/uqeUOarRFwTfnOIxUP5qg6gfj44FQEFKyeQq/dvTTbNlxNE0a6xx7/7hm7OIl1w/hVXPGQZeL2ZdlgO/flTZYiSLAIXe5KguVvZRH6Xd8u7ddPHsOLu7+dU+PLvZc/nPD1O4oloegNziOgVMIY8ijxA8aPM483mJ/1Wek6dispvAZBh+zii1+0p8/TkAF/cdvKQrv89Ijt7Icf4focaYa1T1Emn2PxNGqWRmidINzJ0nU+mnZ2U8j8E3ElZD8BiGvGo2ZgcL20lvczHNoNNmg5e8q6ceWaDF64fLnzEtqOp7KuhmbSIRpVL9ISttQBOu2aEgZ0Kv1W74NCbA9eRF+pePIorWp5FJVUC5E3jPJaGav3ROMFR/kODjGJwkVoL50M0hr1/+kkFbMFHAQ81EWj1E6v4z+Xg+tgqrNLq9R0EIBzjvln4KpJscbVMMJRpAD86x5jIwUktCA9xW6/scTSVlfYUz86YTuap0lpyAhA/KkFK1y4UIFRwtJX3Grj4qQk4RRDgnaW7V5w6VsvuaQMTjne+5JceWJ2Rg9KA+IK4V6MZsSoGehXKYNCib5iM/Gfs1GyGT4nr549EDzX2/TA561n33/Yk0eGbXFJjt1/WZEdfpnGVo4zhaWpMCQNVM9BFrhAyL4P4yrHo+ra1UOh9VTXkBpslRkMkxGcOHYGb9ponRfpn3AWqh6IWVuxcZ1tuGIzcxcBOnxw+WRfU3gC7dZSwpCpK4FzXIUE7RoyMooX57hqIdMuL6ptqEycAwsYhaBqPtvoxsulfcJ73mzijkanVQUbBlGevdDoCISFeIFWGEIxTZUg++bWFnrI6MkHTaqfroO5umEuTG5CU6jzirecuLyFXLS46gjALcVJSdU5szODKACvv7Eh02quqLZIIMt+95f4ZlDKIhKTMhlYyHEuWl8O3b9ntZcec4LX78gnkbCgvy+F97h30KdJ4JK1E7xey+vwCM57uCfEGLpD/J8nUXigNBB/0B1TIUaKgJWOe8hI2Jmjxm9V13/IRrsOW6hru/1gR6t958Za+9CSXPvNuRH7Ne1jX3zsK/RIMBuI4WhYRCNlhZSYnQfiGssYU1PWpfMOIbDm9i47fviEnYfK7W25CJJnNpEx+fVXX0ddptINiKpdzU+lLw0P0dhIjYT31y6ocdhtFEZRfY8ej/ZGmsXCe2hk6bVhxtfkhddu2kC/QCnVxkwmgprAZ330CbAhCOTRCCP/Xi18CJJA2UC2CAiUQY0fPaDPweE+PEMPA47MsaGxOdmFDBlkgmY1ep1MuXTEuT5tGaO+e2mzuIAIQMOLFxEidtKQu+bnKBxAOr9vWkMeypY0nX3sbgXo8zC04eI9ewp40WgJ2MVxl97FhSRPokP5UvnfJen9X2cOTziQ537GBcfpImu5eh6Oh2InXKcIer9eLg0gFOjYzuNc8ih6jXRMuECCIlTC03KdAMvsWsq2V3zUGv90zI6yTu9SK7hlRan94dyoPcfI2BI6oa69+f3CYO6DlL4xtunWQl5Tnz3K4MtFXP6hg4ft6P6Dbv5ysKPNlm1YBRF3v+WQPfhIdQeZn1B3UiYZgRejmsZtq6Cjbh4ftYtR2EDN+4tbUMqtiWS1vGlbGBE/rWdOuFCSBtdTRuHIBzG1aOkywCQy5dzT6VJGAeSiRbHSB+CJQkP63XyZ0pKKihqrrtZcWciNUmnm/3TjOdc65eM9g/T4F5SyOQEnNDnYz4X02jgdMKpVq2dfiFdrmshKJ7IA8SYRD2knjRhp+ZRq+x02UHbswFoSvD+zhfrdxWr3LcQfF46Eob/f+5JVSZbxr/jqOo/g9E5WTwZBqqd47wTPtzIC9y69WV+XjqnPct5GJ8xjc5c8z3vhJhpSsUyfT9t31QJLKdpowYsv2VNHe+zGy6psY0mq7egLsa3b23b5lutcf2AXhZcSXH8Pa6P11fyjdgLbTaPJjm1v2IWjDNNgKDkI5/aP3me33fVB1yAyjov3IVTVFuRBtFFUBjFeI0W19TUOWOvsZXAq2eeRNgrZazi1pKzENgASNeD71wj5Pl5hCLwQAuutWLHQya7xHI2hE2z9U8BuZ2r21ILlJoNa5+CqISPU5qWtTDTFmk5sLqFbWIv4y2d+S2PEeaaAVTNPttzyKrv6ltsAJP00HOLa6DSd5wN7AZMiMFw5GSbOC0QeCoERWM10JmBT0rDS2XYwhEaWVRKWi1DnDx23mKIWXbE+Ll0JS07E/e//3P97+MBZt1uOuOD1u0Cd3L1TjksawiXGFcoBPV4j5o9f3wOaEr48DiDdrYf7HY4BcpB4yvmQbehLKDw5gybNjDyn5IPQzZ3zSXbjmnJ7+6XzNgo1O8diBzmwaFpnvRxcu4CcwQXvZTT97MGDMHVDdtVt73f9eurFkIXm8FqRXaoBjMOnCH9pm5dUZKE+SRlQA2VdXXsfxqeZSXnuhQvq3FY1eq2yDY2PbbhsCRY/Z/v3HXTle207p/qOJpcW0jKmkUCNn3vHcSluPz7iZAYM1Aw0K9HY5ZMRTmCK4oze+MxTT9vzzz9rS2lBagGZZtF8mRQYx3aZFiLWTUJT5jBZ3ASlLIygbdwEgNRQmkmOM4AXEA+eSYEnQLUtgXLyzPh7UpawAJPa2oTpIKV0Ubq2tfgSgr7niffKDBiGdUogD6UvIWln0wjzvQxB1u2s/9JP5+Il70vK4JRCOoeSJCBtOQPhFh3XQ8YhBdBrnJKlgZjhCWZ0LD3Gaz1ChcwmylWoGnm2o9+urWfIghecpbfi8Yc+Zx9+4EH3nn1HDrmdT44cOGrH9jJR3Y1LZtucez51v93/yU/hGfAKkDKuNM3vYXCBKF8POCwDTkDbypBHsXZz7JrSy9h4PxNAtHXh2ssrq9ywSR7fudQI1Ere0tJsO+FpVrAryLpVy2mRO++4AHE5gxSGVJTKL8hCweiqBhd4T7FBQVVVjSvIaN8+xfo+plS0AovqRWsYrqWJXbD+yxVIklmdROg3sU2qImq/GXX8TgZHXINEjFxUCuAWB3+q/DibE0iALJFX8DMO7hWn781Gw2VuWlTRvDxHG1UgL07tyg0LgMlCFce9TFNJIPrb4UouKC44N+vghBb/VklZNCfzAkENlyJksYDxt7hjOWfi3hxPA/VZeu97YUBxS08rHOjYAQDgBCs4M8F5SuN4wcyktoWJVxnHUdjaBblWi3drj8zbwe377GJjq33kC/9og8TpIzt3M5bVwyz/Jrvz249bA1R6BKPSLmbiWYJaK6xexR2tUQa1Fs1oiGVs7my3YoxtajrXqsntcwkFVUwGq3NL9f18sq1MegGLSf0kv/PnL9jhA/upI/jscsb5M6Dh05kunqHvUMxrJOyz2uoaa1i0kPdjcG9Sxcpyu1hVWjbxQaXEUmJPJ3GnjDiibtYDdPdESV/WX7HOHqHu/ZUvP27n6UsTD35GK8fFqNTaTqOCQKDrscM14ctY8IjlpVGnG4RYwaOoBOylIpfgA1uE370kSGrVgEg/GplehrCT2EUsqCojUpA1vvfN4ryHD5w18hQ6SBeMOpFw1fIcpG80EXE+Io0uYYlLcZ2Xu6qaviRg5yk4tlMq5OpLURoY9xSKSlI0f4BCDp5H2V2MlDAW5o189mxoyHk550o49yTQ7SPf22q/eeYFNsc8xhZ7A/br733fFtMwspj9FG//1uO2klxenIiflm7toJoK8aOhUX9FtSu160tpeDFZgzbSomhON89FN/atnsEq0LwGc3PZG6gGYxuhaygPwikDF1+FzHrp1VRY0M6u02CHZriZGMdR6V1ZxGamjB3zCDbTWJp2EfFGqWB003bUxV53U3TzJBCzi8kvqxcuhgtIhhHMtldeetm9qZuxqW//87/ZBThodfOofOrDoiUfzQ/ow+bn6D5hgeKgj73wEiNWkI7bp/qmAY4U3KeGGudnR2iWII3Uuwm4bpiTGKYcUJYFFnQhwLltrbmsVMdVCJBAZYh8iWybRuiFYCQpgabNpicRFI8JCwh6Jyhf0vskK1k3P99D+JKm/n4v65BMHUuoM+MztWOHwk5egZQPBN/lPtXmIjRUouQ6Jw+4YhJhbNh8hRWyJ8CH7v4Eyh2xaSpyZ7HGb/zzy7aoYZUbuhVzJ4ZQsxPq/9N+SkLxyqSGAdnCSULz8oqazhaNm4elF2v+j5AqHCA+Qb2a2s8wiRA0DmcQociltDzIFHd1XZ2tXrnKTQ9HMNxlNKMUqmSMMWfAI6gUrbkJldK9D33pczZKvO/qaMfVdzEUwgtGxunf67O3XnkLIYetkSaEAlqN773vHsdnHzt4hDo68RtJ87mcECvPCb83EaNpVu2ulULv3vV1eVwYo1tIjdwA7Wc1CfKJiQM21kUHEl/x3apRJkqncvuO48dSHR+AEJy3VnwWlavUkG9Zodw5Galz773voXwhfqcsccHKoqWQYgclZAaG3bEU1wXuJGQpkwggAUApQApWLx0DH5N+4Rl4LI3z8RXRnMHomisogQrl5bRzmo8PaG4ft8CiUVsNAn/s619ihvBfnaCmpyP2b1v/xX75u2ectUYItTpfTfsMueodG1RhPErz5kXaAMLFDkpRtOPa+nWM7Ju9fNkAACAASURBVHMRKZyYD+PUdjUKG277Hd49TpWzY6CD8nQe3E2NrWbMbCV7FS4DGC6iY1g7lVZj0OpFUA1G61IAlzMBba8StTeLBoQc0oj1q1fbSfaonWWltG2MNn6iOkpL86jt+dvzxPkR+5fHv+lWWztZCWTpQhTjwfmu0dEVHABxQXYO4XIsk4VaVZtn33i5kWIObh/tzeR5L95ASfg0A5HODcvEeH0S2YfInfRsABx/j88SGjgHx93jnlX5k0AlKPclzyCwp6reOCfCMdUTqGPFawA6w0vWHNdRJ/z0LPABxwmNE9fVQ6jXXHL54gO4fAea9FpY67jH0WdyDC9VxARIF9Id12mkE1SvySl4gG//5OP0RnzZbr3jPvv9H15kq9dzTmnPHDnCziGNdEdtdPsqiC1MRuBjfFiItdTnuyFb/m4Z7WZQ97yrm+QTmrMgf4QP1MWUBShUV5GcnzM2Li+T5telVYucZxhHeVYzZbRpCfQwJzWHks2jFFqXLHBYDK+h/Y0F2hW+hvBQ3h4qTFqsMsqG5fSMy6Xn0xcgyjIiMqGx0bl/+U+lKFoV/dRJ6BzEq0uL1Yq8DpAzi/XWd9NcUkwjKKXgHS0DFkTAyXyGUHJBDpwDGigpjk8o7sXzdbcIIC7F46iqM7hvCYOKq0PmSeiMKwQJLbOoUoIILd0yYJ2H8nsH8JzMpZVxgseFC/6UrNxKuz8vFYUcBuAveRtdC99y+QGqi3yMi/3CApySex38llNiztAVUlw7G8JM5DKCaQvt7vvX2+kLXfa+29LtY/d/wr72xS9iydQB2Cvx7bfftvVrNnC+2nWcgg0npn2FXPcvobeS5tAI7k/7IK9ho4le0kYVjPyAnADFJXkT4YRoTFvYxal1WfM45FA33Is8ilhFbRSlBl75Y4UTtZ3JI2pSOID3UchQu7n6E8/C6XivhCoUhaicvYg4IZSpDpccRsK6aZqYgARSjV199m5vWTRRW7/Ip65ev9Ftg9Z+kaIE/e6br7zGnvnj7+1oy4RNHuu0HF7TORk1f1Ye07TJoF1q3Wmq4euCIJaG4cId8yJ0jSKQTyvfprmHhZbE4nFXgtGX4+qlEMrRpSMSBl7GxXpZ/6W4LwHLMyiMUIBjqzV3KBf3FWKm6KfS75FJvS/+nMMHHM6P8KXnaltnSZxrdrt8cGxk6YxlnqKQwpgChfzgzCADmiipz8UZOm+osF597TXxEW0+XO1or7z4oj340MOk1UwfA9YScWUh+iR7Ic8Uk1U8EglUhtXLNWeTCXQRw+UNSiniZNM3oPE8hQZNbGkmM8SuIN1MFI3SODLNTMSp46dchqEd18rgFkTvdwI2NUir5p0sZCtOYoq+gDEemwQIMlpHLz1hQA2J2hlLRQwBEz8nEeEkxDopLZGmazBTPe8TFBxU1rz7ox+1BQxRfumhf3SFoOdf+DM3ZMDdo1BokS0pyrCuEIADtkoFDgEm4eZYjDFx9nfpH5FSycdKZBKwsgZ148SFLLfvQJuErZ+8SMeITEu4l2Iz4E/NKzQbs3GVLJXXSQEUm3hxDBcvhXGgT0oAdBFuiH+O8ngptRQurlSEWQpf8WKXsKP4ERXGKHg6ZdHrZiNMSzGOLcXVSfn4rHOQYQtWptkIDbBHKOH206C54Zorbdfrr7ucXs2ZGuWaA2tohEs7hSWxrp7ECpuAlBGho77IYfCYuBMpmmj5XBpHVCzSNam7SkUk591QPu0VlJGWS0gWbzNE02c7Q6BUaWkhF+OXAp2s+c5+uIN9hw8wcV3qMIQGYk+B6y7i3b1CmZroLYRwcFug8xVAO/Wbn1xSe9UkoCTKnnSDAgla0tI2a9/8yqOOZBjlYuETGdeGb+Y9MyhTDosucKMunXF4haycAhfXJQU1dczz/mGUQHv5Y7uuQmaJdN0iANfcQRymm9z91OfJQmXREpys2OXoZAqFpF/TPBYJIQiFDBRAh5Jw9Bopk770WPxbChYPO3pczSTK9RWr9Y1+O4XAo156IwJnzQUBXPe+FETEjQpM/HO1EM73Y5/8pBUuXGXb3pjFkzJAi7t43/s/YLvfeIsxdMq31FPkmLUPo9hXTUG7MTrhAASrmYtUnpPwuyF8tGmGKnrabTUd7VMqeKGlkdH65a7XUsO0h6ggqodRKfvqZcvsaijont4u+ghrybyy3Q5kamxZwqCoCCt1HmlvJrcdPutUTw+BN4TW7T121BYvqHc7X7hqHoogPlAbLS6u0k4cpXSaUqUi/+xjU+NJz6Q7QBRtHYXbVsritm5jhcO4FbWK15C3Kj4J/SfD/vnI6+SxlToKxmtr0yA9ABACCEbIXVan5k0WlMVPYSBYXT1C4DOQK4rFrskRYeg4itVqEqF/lIOq+dPRDg4LaHcTKZKUBkO7lMPH//YoJNCeKEVRlTBeG0DpU+OeQqACOAMQjlu7trXVxrfCqTq+3ECIUXn9FNB1yomBHDx8yoYONVlVVYkbuZpW6MR75tNIon4J4RvVWeRCBOjCtI1J+MUoi26ho5CnGf9AChtH4g20vkOhQZfT67lCQoN2VJP7V3zPIGPq7x+2NhpzhrDw8ve/z42q7do/76aGta+hDC2VfZq0C5tqBWpF0zZz5wjZKlLVLVxg3pf+9pK7749uUpAFSuymCqiO1XxiTiYKoRm56295H/3uB+gcPsmWJJls7TLsGD/sVKuPAGV2Zhs2bLROmKsjEEc17E59qp3dMnXRXJj6AvU1R01+jvx2cjgEGCJ+EzvjQ5pcGAvphKtUDIHIwuV5FNtlyc5NyzXx7aN5JI3XiZVVN42H1I1JLkUehih5zAmGsIBnIFRaTKVjzjFGxqDHXa2ABxwFzMKksUtJAh5A75cn0bG0bZs+Tmeu8KKmTwl9FhZQrt/947HIrMf2nzwFgzph45ctt02bN1kxZfaLF9qd4AWiMxl7U2YVoiFGIEMdv9o5VAU2dfkqJLj9DBjbVtjVHIU4fI+HHdqxgjD59ox6MkCinVi5AKIoY20Hp9lLNd0ugMzT7mO9XTTVYpxjAExtClHEVLIKelmcQyKyymNYVLWFQfoPvVuu2cJESQEXGi/lpvDhQpTqCVDKoJpATV05H8LWowHuo9Pe5rY3HUWD1ZDoMgPeq9bubexsKYLBtYSDA4ZZsQRqC9reVY3hMqD0AI4U7dMM4NQlS1VoSGShEuF7XcqHAIANdLdIkFg/i01SImNzFi0lca3WHFAKAu3gfi/AFTMq6DIDKYUEHpUnUDjhuOidu055DIHIOX7qM6RosnpvMqnopef0MgUnuX3dUWQGBRKsUNYzy4SyzkUhgMYg6w+G7Xj7IQRIZS5/M3dHqbAcBCE+5PSJw9bb1mwLly52N8rohUJXtVSbWExpVzVOTNvSaNhE4USZQTETPmrS1fCIGkI1f6ldR0UEqadvGHpZlVhVDDVKXlPLNn54YMV3xl+sva3FrrjqGrdtfD6Y4GLTBcfoil0UuFRWsXHdeoctvIsrq9yF6ILklrSHTgFUpDZA1Cy5RseXLmlwJxNLWOl6yd7+66v27uvb3JCkQ/FcmJfVDuFmKthqZRJUmoGyhBCSqEcdV1bu428PqzjH39NkB2oRDygeQdv6ktmsAAVw3b4c0rlhpnh9uP0o5jyLkCTQkKNitRWNnlebuZOEe24cK6UHBaHEBcdDNoenyKH6GMXyGwklYgU1bCpEH1PokLJxLHkC7QQigeqQCh/OxaMyOAaGNy89xusnSdHiHoBzkDvHbczywaqRPPiZzyJ8ZiZ4/YrFta58288mlxmZ+fbmnr32h6eeYmR7EQrORlAgUwG5STCTWrQdA8p6qUScoU07qMS2t7cC3godAI/BGWgAZBzF0fY5HrDaMGutkDfITqNqMy+g0eOy9ZugeXPdqLiKRtpqV3srae8kjaS7jbRSGWGnpuBV8UGckraD7yQ9kfVqTzs1H4hcSAOxapOCBpSgvaPdEnBT+UWkdWiR7uyhhVfzoZZLUycD3YAdrFZVp1kWWCNjoohDNCvKZdLYy4bGYericY5aw5nUbQgVaebDp3vgIbTuWsBUcQEcS7GXveyoTmrAIi5sBR91b+k5mnmdFyAqOfQvp6TuL/Tt0rUxHcRzal+Xy0hC0HpO564Qkk64yVbpwgcglkfhPB3R4s6Y1+i1PKHmVHmEKWYn9KXnKjIDgNn4djpysXt27TbflVe6Ta5bWa92NpFsb263DWzq/PMnnoDDr3Ox5J23X0FpIqwLRRpcuZ8tb3JLSqHLR93+hl40PIi3GGVqewnb2GYgUClHArHQi4dOhSAqpBA3SI+hqrWydgHI0mK2qMPatdtID/drkjdXiFY7X01ttduiZlTpNEi3fZaOILfFu1wsblkbF2rPP6UJGrHOJjPQjZSUE6cj+HJalWTRn3/oIeoBZ6yR0m8YNBrjpBRPtR+g0G0+QnRsKbEvkUXVrtbiEVK0urxulhHtCP1p8hwCI64syxbmyWxwmKTUj5c5q+NbyincKBWTsHEEcQvlZ5xUdR7dufo5js/HABrjyF1WLOsm2rhCUSoHFahULFcYSeFnCtIF21qWWssv+UKFJP2ukXECmPtsdYvreDAVgN8hJ3xpahGbW5zqhMMHfDafvWBf+ORnuN1eIXzIsw7dj5Pjq0ljNS63hgbOdfAlmcT/5evX2p69e3DviW5nMO1/2EMb1ygAUiRRbU21vc0WOVPjTCr3abeTXkcrqwbjAVAnMSeobWTU6KGtb7SxVypt4P09ZA/gjEJCgwgmje8pDVUdQPOEXeADjZAn4z162aXMq73iJAQ1IbixKFy89qv3edgBhCKORq+TCJJy935YlZA8Awe7876/s//6t38D9SupVgjBfWlh8QI5WP80Zi2Qg7flaWXq/MLXCPv7xoaZqRvVi4XqeUZpViq3pqNDWJU8pVUSNqUhYhqv4dhxwlQCiH/JAwiBzaIdOjolJF4c/znD46Ii3EOSFN8M9FqM48rFh3lOjLEyPcImFTmUg/fI3sXUKbGAquIz8T78rr/BoQ5YpgBC5iJKI+L+IUybW2+I29QRS7Q/snBRRRlb6WUF7GL7IE01Qbvj3ntJkdldbYa9DXiduniu2bCWbV2q3XXqlnLaiTwCWtWuX+MAQ1n1ums2MfmzGDJLuCwNUHnR3ZpuilAbZCdQpURp9AHo/gvnjx5wW+zIWpIx3mKmjjVir/0Bs/EesWRunkXvxzAhXfcr8FDWDqFQXtGCrouU7hHtDKZ9abWzpNINFQ8mJugKKiJm0EkS4KInBdJ47rqbr2Yu4KD95X//gnkJECIItFPxswAF6CVXniE2KkHI5oKH+ByBoH6mddrOBjkeLgsPIR5CWNuHS4tP+SBkPoNszTJwBRLsNCeLY0BgcTWSRep5eQda9RCQHDZ1dP0ObphFS5RG6VzcT74xXqdwCi1RyrohXiOlyGXNdOuYOBshBYgfF71wgo//zWu4dnkF7xweD0HFaWC2ymMRgRaENmAuypwEGr35rrstyPzDvgPH3X0EVKAppY1ezwsz6Y4mzlAYsNW+QFJk7ZMQi9ETAEuakJBJ44c256bdm00cJNQRAJt290rFSxeouMMi8TbIn2Y3YFtEaBns7nQt4iU1NXjmCJ6jxbGQSYQT3XdIDliKmwzgVrewUkyv7q2jTR3kLtSfJ/5fW510MvSpZoJk/F5vDx3AKIZOOoSGpjKancHJf57Ol3HIoZ0Mjmq3bLcDJx9Ykp9pHRSPhPZlnRlA7fFpNk7i90NMAM2/M8jW8LlWmUlWAfjRJtNzbMs+D0GjOC43PoZj6WbJkxHaFOaqOKzNGeRHJBjFfXkDhoY4roTIa3hWW9jpM8GVLiyF+UbeHEmADc/CcZg8cwJPFQnE3wpx8jB6zXvHF9ErJyIF0KOaacUeALh0sXKuSknVCt/GFjSqD4h6Fks3D9isqa1zW+51kmpV1y8E0LF5BrltgHZ4GYqsWzP+omOH4BRKcNdeQoC2hcsG7U8ymtfV1Q/3ImygMvoUOKLNTVZpz0Ol1qKo3QZQeOdcWL9C+IbmpnxeO04ncb71T3XZQEcLXoEbcFJPmKBUnATgVNrYCz0sU9KdWcATuqkAaQ5a6S5WGkrf+FQQNwOZIM2trq+3hnpYI1ZoGqInCJmgmzZESIeWwibt33vITbQqv1agTMPNjYHClEqqGKGZNh/qCgdl7/TrtjEoyYlee+j2ZfbY70+yUQSx8vxu6z6220pWX+Ni7QCrP4GFCqjNsGGTKNoMwJqUWN+F2RRteJ7U2P3NwK4TigKGlELCE3eOd4bGFeFDBoHb8OEC6N3E22GtvIdTdB5CSDovHaXgMRUpY7xH/QV+NC+H0NEZhHSiqWWsC/evRgWuSU0wU6IJOWEXqHhMWEmpamt7k1s39fQPkyIL1xR7C7jxJIQYRqJG2T4+XKVaAe+ukX6Atd+l0VGMTI9VgAO0T4AGbYWncpnTLALkTaivAsZVQrysbKPL9TuI7WILdf+GAJ3b4/wUCyu+ZgYAGCLkKssY4XUyuCDnJq/jFQWcQCDUjZPVsKAieRk9ZhqbnmawY4INFs8cP+TuVXuGoYJzAJ1KtHoFN3UKkMpkcQ8atzcfGinrUXhQGobMXHYgr5HCY3I/CjcSzMFBTmh7n335nmV2/ZJie+v8sHvPwX/5jC1/4Emr2XITbhZvg/UrhEjAcDmkk2xSrfCA2U6B4Fz2gqCU+jGF5mJ5Fs+jJ3EvgNKRjVqE14vPd7uF84yfrqQI3mCa480zFBKm41f7EYWxXm17Kzp4Ygwvwskm4fvLChAWwp8aZX/E7iGUmokncJB+OsFjNFJNpdDf+OZXIMNauTFEv61jfEscyygduLqBtgC3OnqEM7Qg2nVNwyPnmpvtAI0j5eUlNGxU4/pp4wY4ass53dSirr7WqthrSH0C7t4HNOkUwAxqbf3s0TjKTKKwVAEFoHEApjqJc7iZ1BwpVxQPL088pd1CUNgsPEWIY7bROiZa2KtcPARVeJRx43fe2sU9gM7igrk54ZB2sw6z50yFW8ybb30fd9t+kHk0FIbFc7ME1O/bKEA899yfHPWpm0pqETwIPn5bN3UG6y6fcecqFkpuZgLvcBIl+OWr5+xTNy+xIai7k+z2leGP2Nmffc6CnWywcOcnoIRhwrBIvJ5rAlE7noQiZCYgR4LhGkXlMWRhygZ0rgoNdB84xVEXuOPcpZx8y0dQmKSpQqmi3DabLQAkNL2OYVG6RhHQtnAQLIFSqC6g8rQUTfcGVH+EFJlRGve3l2llYQMNgD7MPZXmiNMnGOlarv0QqZaKsMrCIguF9Pk3hqfsJt1WI2gML9DNHorHTpxwt+BbWFvlCJsLrKluNFVVWuaEm00I0favmShNJsystuqTWfSSMUwAwjXpq+32NODj7k8s8C3r1yQwipFJf6G27NF71M3tcaSb3CXn38+V//GPz9krz/7RahYtsE3XXcdYcQMHmbO9u3fZuaMHXY1ZNz5MI+5rR41EJOGmTnFLZRVl9qH7/8H+9vxf7NThgyx2HNVPIiGVOFXRyibZloCcj2YR5N4mAIi724OW9u55e/i6avvJ7i473AoNiovsf+0JG2NKZtXHH7X8+nILgIOUqwvZzzKXry5hFB3AxPE5rg4t4QrMxYWMVfO3yOpJFpnioetFcBtJ8S8iwMpjGSxCLlW9cdazFUGOUR4O4Q2Y88LlolBgD+GIiXHUSrGI3Ha0p5knUCIuqISdSARu69ic8fPU/vtYo+2Hj7HLaQ0bNjZAQFFFxZNq11RlEGIS89Q6x32PDhw4iJGNka/3IPxFCJ99mIj/7la1uH5tZJnNxh3aBDJejp8GONPGzefqPgYauB0E0Ucob/rJEnQTLeEyVWlVje0njE+T9qVC85dXV/EaPBCczASgMxqgEqmMgS/P7Hxk6zvs2f/g1x+3D37oXu4EvtB1pr69g73l4QMCtBopXRACLWZETB/g7smr2C7zQIsKiEsDLJJmCuZwK1exBeyO5l4Xg7U1/Bo2iuyizUxCVwFEApOGqu38bB9eA1ru/hsWW9vQlLX1c0cwiCLvVLu17dtjGRXLLb+We+pp3Jv3JSFxAWM4KHgCoXdIJ55QiNErZjR8wc9RhDyAIAdRmFFcOh9vQ8T9wQl27uB31saRRRo81SZVYh85JZfraTcVBpgdbnADo4LbHD8Io3bxT98lG5myu+oLBBRsJXWSb//HD22CmKf9e6669rr4zaJIz6T0UjhZtSpwI8RikWVShFF4ad1NNRnjWkA8LofB8/M67Zim8BshXBRREVSPvz57ng4kbdWXS/eWtokZpvdP/X2qH7ibVHLSfTSiCkTqhlRiX8M8togqoeNSFHgEVpGJJreUfan+4M3ljlq/eOYrVsYOVIoxOrHWpnaqe0FbuGQBO1GWudFiNX6o0TGG5auRVJsdJSSE3A4bpcwDrGMDiRPss78qe9bGErlRATFId/aSCw6iLAW0JvcgWFUbHaHjTprjsUrPnx3FS5y1R7fU2lZGy0/1EH7wTGlRNor85/tsavD7tvquW6gqsqee8nZcOHf+RVpC8fGCjVJFMfQyVIG3IIJnf0hiH7dXP9dBD6DqDCo382bFDM6hN4PxK7akSc0iHtNxJJpVU+haLgFa1SX0KYpb02w6febp75pvvN3uXVlo2YS1358ct0+D+EugVFUki6lVDE3yUUqM0LAxOQVa5+8gLGgMl6XmmgGypkMnuAl3dxf7MbIPAv17GarCYhxzrugz425boy/XMq4qHhiqsuw946NtTufJ+s0CRtUt7Ho0AI4aJ9cGUgM9jLDTcdyweiUYpJAd2w/BTHLfIGKpJ4F5DNZ9nKxO1+X9xKc/5WK05gEGWPQBBK0bSFx5+UZSED/bpJa6E1QVqo996zQ3qDxci6ShikG0uoXULpum0cuWlFmAVu7/+OXzFmMSSJqruHywnSlXgAtjsqyouAEyDTo4VBufkzby739OjFgpewZ8+856+8bz5+0UmED736Sn4yV++gC44FFb/P6/YxsaAGomoA4ZymCjWLpIZrn6MT4yTNzGEbnCTzddSef//KQ1v/aMA20sKdZHsQoWbD6BhWQvgvSSBlvx4fusctMS0qe41c8QMwRXHIiFHwmxP/GJp75nk6desgcvLwNAcpvbTXfY/37lKvZEKuJaEDDuQuPxgwx36sZQmtBJ5nVquFHJfSYtviuoFEpdvrqFWzlteIrXuk+BrFT3O1YDSn52ni0oZQ8jXtzLelcUFbv7FmknMGEsebocPHNCZqI1tl5wHUHaCayKauAUKaM2iFI4z6KrawxDDmOsU5Ps7agQDiWqG37LMwfwQJ6Hv/bVrcpJFdt150x9qqx+5eJ66E9OiotSfq9WZaFLddBom/JJLlrARJOuF7nRUwSXU1+/wH7882fc7Hq8J9/5ZY7NgCSur3+KnJnja8Mmzckp/VLXigohYmgae0O2iEmcD26sIByErXOUrZMI1jLYUPtB62G/3rRKxschMWKimzHXaQkeLWPzMcqjGrzE5Q/M2cW3Dtv+f/+kjXAbOQlSt0+Zx6/Pzerun+PgGNKkaDeughn8Iwft//d1JoBdlle6fyHIDkkIIQECZGWTVRCqiFuta6t2sbUVtdbReke7qLV26nQmvdfe2850pr0zc9uZLjN2cWzF3WrdEBVEFpF9J3tCEgiBEPb1/n7nI9fO3dLGhOSf7/9973veszznOecMqbgCvJ/WNQjR4W4iC7gKkj+PU0Gz7ld/l/a/+6v0wHWQL4tK06yvPZouuPRyEL/RMXVDQMV2L7Z3EUq3p484fBebosqVEcVSxvppqpyB4GY6im4Ia9nJaaytq4/sngOkbSzlmtczD1BksRj+vtrAOURyBoPhy0baYLoDgTPxowNYSjWx+YDdZAo/wlzgoWjdvXsB9kgXO37WqMIQVFrZKBxM9y7n3gfvr95DndrOup0MXaRBMwtqyGe3C1OUG3fUhKdaR/y49J2lEAm3gSG3pVZuzmEHFh1IfLTjtVM9xowtS8sXLzYIDz0Rg50Qnm5WVsKDOX8l2wKNC4oHpxtn0AefUqmdrXvTEYRiS9PBNBYM+OaLSyFU5KQ1dXsjDx5E1MP05aHsqXcBdi2viBw/m0920I0/wKbBTUn7dx1Pm595Ia3/H19Ox/a3pF6kZRf88O/SFXfdnaZ//BNp1lVXp1mXXZ4qKNio59mO4EGfOLg7dcN/LJh4MeYO/qPjyCj2OEElzYbHmXry1q9oYlWezrBZM27/JvN2SqOfgg6vmIihb5BiMHEO3hC5ayMMXPbOOzEKbwAzCCVlKgyqc+leB9GcZlztLpqPU+P8YLl/kjVlDbdz8usAcnQCbUuXzSImwuI06IDqxJqhPcaGi0c423A0GmU0QqlvNWbMaHyDfoz920k2sin6O6uVvJYJs2JJqABLOd/+q+9Uq4ItYnQahyngXhhpwyNJi394/qW0asV7YPvcMG/i5h3kVBieDOVvuvlZ0MGxPd64Aw0rgCJX0SkzEwEJFzo+sevhBM1jSMSdM8bR2OBU+u2aevoCUuKEM9OopHJz65qoagWC/vj0ojSlYnRaXUt1q6QJqVSn9qX6xX8g+VMJflHKiaMjB6f+ICSdjh2H0rrHf5Eanvs2WTY8AgTovsf+Lc3/1KfS0LKyNIpyqHKcojJCtMkANHOvujK9/fRzQWE7vXcnz4h2K5wRwcpJ8P5NT/w4db3zePr61SWpnVA1/7Lb0ox5FzMNDWye0+QAbTfSSSrG4arw0cTZhznFuWxqb1C6Q+ROjA48TDqT9v/pIXa6Zo1NjeHUVYwT9KFSmBZuheAw9may5MsIAEUZkK5epWtpWZkCYZJHR9tJIs5lFHAbhT92mpoMGURDyQkEMIUGdDakYXSkhHkPG01YLZTz9b/4VrWcdIcjNsFFs8bMHjUNjc2pC+oMdgAAIABJREFUvp4+QPSe88ZKKDIIWFE1Bc5cWV6FNGazefV0+/C906+FhGfNmRVY86YNjDZDOESxYngTN76AGropRYPT7zbUpZdqOPUs2o72rlSGvRoB0aQF99xO4ts6jtAetjNV4ahdd355aqGmfg/FpGqD/oR/bSufS+21FLYW0g3sMH+3ppbT+qO0d8U/hHPZD/x7wT/893Tx9TfiKKJ3z/ot9DQnRMxg3lF41MNpj/ceRBZD2qMN76deefAaBxSk9Y9/Px15/4n0yI1laXMz7fRHfSR9+kt3xanVWSwZPjw2oBlavdx9R7AYWsmqHsh7l5CqtSJX+3sAQbFZZhutX0TjnDUgr8/7tMefGkH17+Y6P9BO7Ptw/jSjw8H+NbsOmXLQhf6E2sQGnJ0ATArFCDa0GJaPsxxMvZdQst8NJCz9y+KcwZx+GUP5CNbESVVp0qSJ6cK5s6gSLku9aJsehTndJDjeXPF+IE+mKZt21oSzMa58fPSeKcEZzKffv8yU/vDMTFpYiWpYYtnXKFSKk0UdC+9Uy3HUqr377spU/bWvxrRxgQodHgsi7DSqt6uqtGdgtGbjBFXhKI6G+NBGNrIBlSxJtS/I14wRg9NHZ1ektUwHfXZ1LQ9NZQzX07aePGdEGj71ptSx9unU61hDxO8u8h3/9ON00U2fx/dgGgibf4yTYhkCdR3hQA7ks9Awkqjjm5/9Qtr0zuIQ9JOnSUmPnp56t72bHryRyGZrW3ppy970z089Bbo2MgZen8MznAc0rkPWAsLmAC2p9Hr7Rdh1QaGDbOyqTRux7bVAtN2pdgct4Brqo1+f84rOpXrXRs4eKPP1jomxS2gejB2Bo01bt0QV1tzzZkW5/nEE1NnGTS0tRAT0/htmLwVNLNoBFSGbewk4zIb169LF8y9jyAVziQCNzB0467Bmey3+USel5ONTVUUZ9Hz8DNY2TIAqog7Vv3zVymjzaq9dL6hkTCVMqaysCEzAJIY27BAhjs2gHFBwBIfHTpwWl5bBCi4Dl7aSJR8Vk8PDlQJqrPtgTbQxHYyABKCiYyglB82hg5bNJcQfwyY1E6R7c8U8oB1AHZLQ2n0ybazvSHMnDE8zyoal1TtgIROKassG9zuRDtUvZVf3gdihaRDIO//xH9MFZORsY2+00gKgY1CyB0eR4aOJ1oERSoH9hBM6urQiLX7iSUwZ+QyqPI7u2Zm+eHFZ2s70sJcJUWdedHGaR9ePg9QyFnAIchF4+/Tr81jTZzpdh7aQDZTTb1LIMFcVL+vGWnzDNptGdbKJnRTMrGdNhN7t8SO/7xBhixk/+wh4UEbJ66fHz35MWXRg4X/7aBzhYK+6BllCo9IomFvmFtTEnYSO/YHmN23ciqk8EnUAoxHYfMJB78WOsOYa2uAVzCD8dPTfAfY0Z87VH63+YPNGEg4biO2zZtCngYZH+gZ4leOrKkOi22GnbFy/NhI8eTY/jkRRcTyc31tqXIBqE8g4iUTLddOzn05hYmVVFU2i19P9qpWHA+RAnek1q5g//MyYPG5qBzZ5dxe1azgxBbZCQ1s4hewDhEAzMnsck8XJNtpvwBKq8Tfckm74bz9Pn/zW/emmr96XymbOJILJUshm9Zh8yCZJEDUVnH3qRCngtnIZjtAOH1OR1rzxOnEgThWbWdfenTa3HGLjaA//8COcWnj2qN2K0aMY/jgibPD2hgZC5q6ws7nYWNdJf+owdlbijE2jFDS7gkvJsq+ygi89rhOT0NrcHDCuUcPoEiqx2ahGTK/1EXrzwxAoNfLKNavA/ovgCmTdv01odTB7KFftS6bP8X2rN24I/oXCYB1HQMMcAJnB5mosPbfkXD/A2c+r2Q9D/5z+eXnVK5YsAy0jTCKyzkcFqwGcqGUBg9Uqgznh+wEbVHMSDkfidExgU20YFS3jLEbgRmwi1YT32wKNqRCfwnCxAymbMm1iuvLqq1PtVlQiIBMoe6gunUQ//chmjikQqjVONzd6GHDkAA0ThuNQeaoMJ3d1YQPZxeljGJ9GiCN7xm5lVdfflgYRvg7NG0BNIioeyRLyZc+DN2iGD0sU6N5xsALWKksl8zpJImVTJqbR02amZU8+GaGXixeLNX5yuvWe+yieEWY1hBJn74sZOxobPQYCp5uwn9Op82e8LjdPPoVVu2IEalNNpubOtLsl9GMgjpaWV1A/uDkSM4WuI8IlQidDyLY7mrJcJobp5bdB5RIscohWPofNCSA2ezyE1momvbsWf2vle+/rZzMDem7MX87n8BhyOq5WwfP+9XAP4mDvJlTftmV7ynnwO39d3Yv2bH15CN9MmNeCBKMCmxFZKBqtUAAXlKTyiqpUVlYalHFRKtW39Wtufk1zbXS3Pg1mno9naxt12Sp6zAPREuMnTSFGZZrWzp0RZWSuWaYFFAWpIQIhfgQZK4REtgwnCvs8GNqY1TH7Sc4PJglUibA2kJ/vRVr6IMmbUTPmQSvrw+9AC7m4p7+TzWeoeJx+6wtkAltZREgd3rU0shzwhD6cuDcf+9dU98FqilpgICGhp9Bi3/ivP0jTpkwO6tXmrdvSspXvsfj5LOwQ+vczSBs1Xweefwrau85dHgIwEBNoEkjHVwF1UxVsy8L1t7Td06dPDfXfALw8fdZsQm1y9PzOvkB+aG63bt8WFUVW+HqNBrCCEQiKldn55BPEC4Zgjk4jGM0t7Wn92vVEH0PS3PNnM8wLT5976Yf9j9wLzrnjcizuWcFU15V0K9m+lX7K933jK9UjYZ06kHhXYwvgASPiWJ3zgBGXr1weWLUUZVvASksuhlAwFCBeU2AywjmDtY0NeK1d0ebc5kgDKG4oUIB4jdMwXnn1debWdNDgeHN6hgnZzrxxITIuUDzvfxAGRcBFinoDlw41KmtJUCgXapS+gWHZ+ELGwyDVu8lVdNWsSX0LJ6Y8+hr0wcMzJAINjlwAiDT2nX/wnjqJlrSjUMKHsCqI1Hpa+dvfpJd/+LepmGbT/u0BbvAzd9+VFtxyKyxf29vKis40ltxJh2u7+T0bbbrXGN3qX6Mq30zShk/QJSzJh1C7p9lWMDqcrUQQ3fxu/qWXRG/gt99aHD399J06OvZEhy/ZWdb9y7UUdJLY6UAIKXo6eQJHsrg8PlPp1TwaPuIx2vrkQxLth6aykNT4X2HcTTSydMkSKOT7okZhCkm/nFnz51fvAXSIylEeSJaIHcNFlcrLS4Fju1H1zOjFHo0mR12GUxM3wIkfxTw7E0CbKYOWfartcaBhHk2knJLpYf7pT/45TZoAgob2+WH1X4ZECw9H1er/MgAfmoLYfD7dfB04Mdng6LIhDlk6qjGX4MUmNUJamTOaMW/4Lt2aByhqxbM/SpsZ6Fcs/kF8hEP4mtp71jQ+9T11IC0Ps/dwP7hyNS8/nxZ+45tpZM7xNAZGyBb+6NIbPpHufeDByNef5n274PYJ8dqzx5BNRE6k1OkpInNGNrloQhfbZJr/M+9h11AdrqEIiGp4246drCn8AJzkgwiuOILEjA7AuL0geBuWrwh+YHRTQRtbiu+EcWcM2Rp2FI7dGKDhusa6VE5yzhPeiVmxWLSqrDRNLKOSC6jXWQNOLJWGpyaQNLeODi61tXWEgZNTRWU57WRLUs6td91VvW3bzugdZ39Zeeq2hnGT9NidUqWnXI43X0khaAlZK2POPmz0u6tWxHYpqUMxH1KVBHrcTh2iQ4BE9/7ZPWnqrFnponkXxkCq0di5DaiqrGw5O+Fu+v/+kZ2hs4LBC+QSxLIiVXIJFQOdtXZ8jGsmlqQ2Mj+HjjDvGGf2nEJm6wxGMDiy2n+1je+BzOI4mufnWlzvNHH15oVPpNe+83CaNPhkmlw0IC0lETUQJ+nO+x+OOnrL0U6icUzPmgJXjashVdFeV2xX89fAOnlNGTwHCKnF3AV8IujBDAjlWskjEFQMWCT/0shgOMMpDLMV9CDc8jqne+wRaUVtOzK3AHBHuNc0724GcNpYYitdRV1vD6bFJOcQMWzEnzhv2rRUQBSlhj7Bw5snOIRJr6cFbRMRwFWXXx6tZsQoJKjmfOHOO6q1PVPOnRKO3UDiRtuVd0BaGIrEKQxjkLoSbkJ0Su7bcU7hKuoJR7BQlWgJJ2kW0c3SblXdOIvaq7a97WkbOf3tO3YwKXNN0JmWv7skPbvw6fTxGz8RhIn1q9exgp7z/1ME/ImfSq52VGHkzPJDralfgVYDFcO+c/o+OR14Fn+gnUzY9ldfSC1bB6b97QyhaiY72UyIRc//fa3dfE+SCWBnDwu44fF/SvVP/Ch9bGxfbHdKf6zdl2Zffkm688+/Str4YNq8ZSN5EcJadlpihXG/G6ljrLrXNOnlC4d3oF7b8ZOGEc+fQkAMEU3ragbNAbjh6rJRo0oipNZkiCAWi9ydFWwuymTVadEoUvPUXFsLM3tgKgNZrSgrC2Gwlb/EUmneZ3h9JYcqhBLBXsEQzRO8pyniTrCUzTtIqm3enF57443gH8ziIE7iIBeYRkaY1dq9nn170ZnBFCXoLdp1chwqXqTJBgXOCrZ1nEiUiQNFvh24djcNCVRRYxCOQXCuDgEZd7Hxhjvy0D29RynyV3V2w///9U9+mRa/+AK7eTrdce9D6eabPpFacX5uvfmWOPg6UGfPepxsPzI9kpkDefCRC2DDPXWnghaUmQFNga8dSSbx0vJhaT/v9wGb3Um4qcD0gofXizbpViGf4bl6MxoO4wCP4HCanJdDV29QzwNHU+2x/um6z92S7n/g64RLtMlhwzrRYCMJeW2hsxc167CnflCJzH3oyfu84gHdbEpMCUWdD8eDd9PVGkGS5VOAyN8pyKjI2ET7BB/BM9XkWtZlAkds3ges5+BkWb19qQr4uobSrpnkLkbj2bdRO1BeWs7aEpE1NaVJ48eHQHWCoNag3qdOnYxw0SMY/0DTp0bfTZKqmeYR1l1cOHcOoezYGFFjlNPryUVvnJnEyTedadxahURFRazePfZlEAsnt3fVtk34CAxp8mFxRuwcaoNH7Y0nwCxYEzdUi9RmBBIrWgsC1XoGkCWXUPI4x/WZf3+CcIj8O9LfRaoy6vMxJ8fs4oAalIvfs/l+9eOsKxiLExqBoFEcIX7OPXhCo6cQ2qEEG16e6wh3uYK2maE/P5+ORxHCHUJ+QHZQH1S7rWtbqSi5+dYF6bYv3pWq6JTex6ZXevT2S+S6ZknbOd31YBhmMg3zFFbLuczFj0D7Ne1pS2NHEMKpxllDf+/sINdTgM33VigMwSz8NJzeDb9AQM0Wr/L1bdFvudhWTqyl966PYWABkc7mjZthGTdR8nV+TBHzoB4EfyhkOGQBzmjWP8Aeg4SmR7rBXqZwXx4GCnwQUoXL2dAnwVPEZwSnRuaPCAHu42y/Ql6sFzkI++UCWxJ2Cin3RqlFibIx7ZRqppBZvLs7yFS1kgLmNU7xtoDUBXdMaj1SeIoyGnlsDi+uOVZDKdjBNGbKFHyMivSxqz6Z/vDCQihkv/d8xv9Go2brtjPKFfXVs+F+9V+a2UwQMAFsQLyC+wuzwYILISug9KYJgWwENWyi8kiz5uCG4QhEIWo0uH84XZ72Y4i+PQ4/ddut6XOf+zzI2DTYODy76kXFIqnjrGY5SmKlGdvZSGbuEPGztrgYJ0wupaROzd0htN6RXB06u3aAJvI/o4ZGsHmnkvtvo6P+hLG9+vAaDpENOo+A2LVR9ZMxFmEeAyz1IK5m7+zxK8paCLG0Ey7GssVLUp8rLqNYt5zqo+JQ4ZqgwSdwVHGICtFWR47nkdXNi6RQ84ZNDODcho9Wl+ZdOC9Nh3rmM8hH1I8aYZu4LjzSU2fGQIcmwwWKFNWvLGwzNecuf3QAY+FH0iMgq1s/E+3HXFDRKZE48Wnz0dKnyiqreKg9IFyEjQAlW/AVvnLPPenSK69Ib7+7PC1Z9Gp6e9FrkULN4wb2YWraaHCgTe/ZcDfd0+2HfkCPWfDf/k5tlX2PoPI/fxZBZTiHmecgfCqQVEcVUsN+sojgEdpskzYXXXpRWvBnX0LwylmEQnLr2WALEbaQAT6za8rKOSeo2wp5n940Z0aVG8oNI8wyV6H9RRaiL3A3pAsLOgZAdLHLuk6kYJnOoIt+4sQe0ujMIOQUmuadOHFScPnMG8i4snWrvP2tWzaHie2BiR1HM5L2c04YW7N2DSbnEFFaWepVAB2dPAqKgnuxSPV4OIWavnbMtBrhAONi8ocSnhMG2vZ3IKwoB356346jyfnsHbdXm3naQ4GCDYlVW/uwWUtI52rrK0rLmH2DqkGVuylNkhR4R0uYzXT5ADWofU/O2LGkeMGmG8kitqIyQ3CKClBVI2mWOCHNgG84ghP0HDN25lx+ZdqJI3YG2JlnDcpyT2D4f7qEscOxKT2/yzao579+VXf1iI3f88E/9ZTNSGoicgFULrn2E5BY76L3/hie9Wh49wK4Qyh27Y+advPjvXqEwK+YrM078LqhYHM2AlEz2xkO4FlTJFLpz+UE1EKQaaVlewfrZ42lWsNweV/AvoeB1yfCtoaxQ9hcQt3FYMyFPkEBwmIruCK0ss6k11eVdeF/+K1dw8aWlqaVILcryQn0Is7P4VPk1CI+8ZUOQnrZQRZ/Lnn7XdA+2tXA3xgPPuJ9DJXSh8DrSNqbuM9UmD97yVYJ5OxEZe2oYSw5caekkGtZrJGcEP/A1GUj1UL2m+nkQZQy7bcc9kI6YvvmW3gzx5ZUURJdUam3yWQsTt6P/+bviD2rCP9Wp3/52b+m7/xXGDUXXpJur4PgsWUN9HJCp31mB7PF/3/911+f3Z94afZ9tu3qAv8djp86g2MpDUzz0oRALvjyl9JVn/w0Xbxqw78ZVTgshjwbogn8RDOoQCH9e6/D93yD28YAjX6oT6qjm+l4BvbgKfa59RXCBGDq5EeIAciCtrZPypUh3lCSMXrsJaNHRo5eZ/AEmsnJIKNR4/mYpwJQRTt++zvn+Xqk1WZiMG1WCDsHkNMq63cs43ydIDKA2r9lixej3qsoIAGZ5X7UBJppfQTvw6qvKlK/CsTSpUtCwA7jU+RRcnaGe7ArWc4nF9xabdfJ9TgfR3kQyYU6HJ6cMWMJMVS3OEx7ADNMTzrwSCx+FDdvJxGTDArCzpoaqGAkaHiNI1GmTJpAsoj5AoAyOinf/tr9tC/tnW6hibK87lE0LG5tbkib120Mp1H7nrl1H26/G9HjCPb8tEcAwhlEisNun932PxWQ8BI4rV1sTMWE8elRhHAcbJlcTp3I5ljC0kEALbZUM50r0KTp82rS2RUS/+HJ4vER5tw4le2Ub7VAue4C+zdmF49XfXcRgnZgzg7jBwgJy8wxI2cTZ8GaEQzWGo7DFnWYhIkN9XWEmZujzqIABFWfZSTrVcrfmYswnFbD2gyidRfNILhHfZxCHOvRqP8+qHTRtdbG1mgW4fc2mZIvoVnW+3cCaT73fIKf7eLwOmD6JP6Z2sZOInIbcj7xuZuqV7y/mgUgdMGh8hBI4DDho9oMqSYLFjP7WFRtiQCGTYqFMrUjqrvdfC+8WEQasxinxf4Awxhxpn3fyCbPmD0zmiW+ivP3xovPwRVYmlaDepkPPyad3Lg+znV2slV5OmOx4WxO9psPBcKmRzFelXuJ4Uvxiuj/4Zad/d7OI4SpbNY5hIl54Oz25VO45cbt56TsJdTTSz+KljsO9dqfGz55L9r4aKiEcOrzSL+qpenCHjZaO67tMschGihMrvrtpAxM5NN1Ejdwcrd0L7117a50OrOnEyZMSGWEc661G17E74V1D+JH6FxaaNOIb6VTaXV2Iw6ie+AsB32GyMNwoyPYpz2Ehh3wA/PxH8aQVRyJkypXQ9MhBqHpGaHJhrYXdYkc8qP8XD8p56FHHq423SoM3A2jtAMwY9Kkc1lQS53OIcnQEhcxRu3EsXNBJGRs2bY9YtJmPP+GmrqwmWYSS8lyiSmY07ZL9ZLX30y/+Md/SvOvvSZ9/Lrr8KqIX+HimWTqPwDomIftDq/UADD7cPt02G697Uv4FSWQGXbEhsTPz251pJNV3ThuPtwhvGp/56bJaFKfhDfPRpVhfj578wJUZXnAuYNgyRhiiecL6zZxgkZw745xF+QyTZrxFoiAuK+DOHHO/dmNnyRnrwvB2dVEf2WwjHH4PRkn8EwAaENQ+SUImqfR8i0XRpDMVi46z7sB2MawiSWAa3YT00wFvQ4NowAZBShsNsYwpGyFOyCWoKYZjjaVXVSzsx5hoDIITS20oFNqSF0P6KbA2yZuOA52hJIoMjOLJq8OI1xqa1PQEW2wfjlfvPfuapk129kU1alqpqy0NDDjvcCOh3mhDYp24fxJHi0G/7fp87NPLQx6cRH/FsGS+CFJpAwBUII9Gce52d///inapF+cnv7t4ymXm5o///IgTSx+ncQHEUgX6nOgSQ3CzB4BiK/8ZwfTP1tYaNWaG6499sONVhhcBLtmnDtlOkBHvWE2OfL8NPOC89Inb7qJ+z6cblrw+XTvNx+O4osTVPW+hS18i6KXEdy3KdojbG4Rfs4QNr+LZ20h5DtCM0cNqmGx72VnzzbCOelWrs8hWEQybWMCGtqkCSjcpNlEIqBB8AI6iekdo1cGVi+KOhayp/iBuQyFR8EYhn/Uj4ikP2vfn74Lm7ZuTc88/wJCtStt3VmDUJA/wCnXmdu5cwcRwhBMckmYhg72pZOsahfCNAQVL19Q2tdJilN2bNpAVMPoOkzPCDSCh9H0tSRXD6nsLVvPqbmFrnO+9Of3VNc1NEXXiJ5ixHrSjiZ73Hxj0bGoFTpKBqPXrOCbixZF3OnpyZVxgoRVVJSlaWSX/HDceUPDrrTwicfSQ9XV6bOf+VQqxGf4zc9+lp793e/ChmqnzI+Ld/t91mwq22D/60L/lx98nxk8U9OKpRBMUcNnXTM2PxMBa/J0OhsaajNfgdecIPTEIqT//DffT7fffWeqwHlrRqsdYnzKCTZAKRlIDz1JF8GzZwPM3Tey8Vu2beRnh4I5O4SElgzpFjZ+A7ba6uchIdjZeHtrJ4zP7eBpef1APPmRFGGoQS3Q0DQVcGIFXo4iZJ5qeRb7Wb/+VFnZq0ctdBgV3006ezkp2nYypu/i2B0lV3GMzdwCLSyfkzvjvPNiLoPsHk2Y5eMWeDq63sYTMrMK+Tqc+7HWYtsHH0R+xkmuw9EyakmzgaKXXWgwnVL9g3aeGSfw5ur9JFLcSBmjslKcIGLiI6pZ+ao0a4tqUT2LX32D+XPFaTpYvoiSteYOgZ5QCXOIhTR92YXjsmlNNk+gnJOnBP/uN0+mO758F21QdqeZ08/FAdoR73c2YDvrA3woAIZUX3vw/qh3X/TGYvY+wwkUA4M9v+ofaPUzRzGjZvdlk2QpS40up0Hi8PzB9NKn6xan3WFNTjEdyqmQlm5JVVTloOadp+tCFUCzyiPGH4ZKlsJVj7BK3e4Hfy9GwJNEyfj7gmPU8Tc0cjic6AXyBzq4B6aP4a9DsxQyzYNh2gAEzRDQiV52XTVKOIYnfhztaj+m/XjqI9FKH6xcBQ8TBjOaowXzK1w7CwFwgvhR/l4YWZM9AAh5+MhCxsFxr7T4tem3h9TEkQ07LRUXvveoiJvouEtGUWNu3749NJf3wMgYQoWKqlArR8DRh3BhPX1tp+TO/YQ9Q8CQ27A3b7/yRpp03ixSqdk41MIRwyLO1N4YT7sgWYw8OE2eNjn94JG/Ss/++gkEQ7sMg7irI914zXXp0er/Eg6UfYSiswjhVI/67xEBSQx5qLejPHDWRSTcwbNbrwDI7M1KxDMx4Hr8T8DnKw89lBa9/ioTPqhY0mNms2uobWigtkHotgSB2I/PYE9fQRrf3Ps+wT3qWNlBoz+q12nlRSCfuujG5NKtdBDtjWDmTk3ZQiQzZcbsEEdzIurZPmz2UDSDodw+mjx4iLx+R+ceBIR5vb1GQi5hE7i+CbQuewOSmTvDOqnodsGvGEvGTvMwblwlqOERWvmvD4TWCh+5BDrA9nRwUzW3/elyZZsfexsOAHuoPHcy/Rx3p2U456WUl1t7cJxaQenhHRxCC3lmz5lDZdBffLvaRoQtYAAHyHkX4hipJsX2u/GeHWag07bo1VfSlDmzARTg4/O/fpAkdFxOklcvL6OmnaSRxM+DSjMVqPIJCsAHSsqoLyydRgx+VWTAfvkvP6FvTS4tZq5LjSyggw6073/64VYrqfa0f+WVlwJO9T0zEcgifZY5/kTvP+BrQkKHVV5/443puk9en+bOnZv+/bf/zlCmedCmUJfYvmJAqWLCMX0JsXeRMt/avL1etzw8T7KtWQayJrJ/7WWsEyyt6iRxs5rC55OGJme/EIRUB81/ewoFwlTJeah4afJ2ATEzpxPbh5I0x8Zar29EoJmwX1ALuIL4v1yKnTsaU/32rUEKyXMvMBNL31qSNqz+IJxAC3JtAOl8ZjVtX0K7Y5JAyRFILG1u3hVQs5J0CO1Zj2+xh8ijDKxg+vTp1CE0CZGE+Sqi21tv7clBNs5a/2GcZFW9UhjVOHxjqPY+YeLsiy5h2WCfwgByYHGeLeWhaumh7iObpY20AaGVsEUgh0OANZ/6zWPplWcXUmb+MjavIFivVZOnpP/+i8fTlYBMudQBaAfd2J7z7aaqDZxw/fvf/Bra0nb+LUJgzy5JHZljJnpn6/OejJtJoVLAp3Lwh3FotPPnnM+95DDkmoGX5MU1AVLXFKpdOFCWWPuenmR9EGfqFZDtc0LXKYR6Hx54M8/aTKQjxOtrB+KscajDkXKKtx1Wh+CcHWYdNpOL39XWAT+P1i5sRDyXYTSaVLDJmF6gqaJUbIUuJqpx7km411PZhWNpE8ihCJ+9GHc1N0UDSN9zL3xAsQPbv6thdARNL9s8yuykgz1P4s8oiPovvsb90PQcOdSVWsFoNiJAeWiBWefVAmh6AAAgAElEQVRND2dS30Q/JKdi6vTqYzgHOl3mm1UTVo9KKFi66M1oQXbBJfPjjw2rDH2MW8dj8y31Nq5VmpV6QwzjTHFsvkkLf/XbNGveR9PsefPTx6+5NrgFzz31e+rnK9OP//Z7SCZpZeyUELAfbnAAPPGZ/cyf+53nX29W7zYGU6IOL/nY1amxti7+ULss9Hrvgw+lSijqarVJM6Yg6UXcGwOTEft2gKqdNbUBwLQR1Sg8tk4z3LJg0/exmtdv2oj112ygozaL50HohBLu4haGuUOYFCCe18jJ0xvDtojFOwkXpWyr2vti/3W+LK2XDmYKN4iZOn+Yi6jmQUgUhBNkJjdt2sRhPBhAj1HFpEmTmEhyjJrD9ojxyxEeTa1QcwHCZ4isVu3pC2DTDtfgMJGGWcYRwMy2XRs5tjStIw9jL6UpEEby4Q1a17kbwcqZMe+SapG/E6eOxdAIc9urVq0O73wccbOZp0hKIDGudBX2RJKiLcmyefb0GUb1teP5G3cKQQoVY0zTwl//Lp0//+L0qU/fSE7avsH9AYCWU3ZOXmD6lLQZJquVsaFy3GLDUBann1kzvkb/wXjXLNmhaRJcMe4VOfvYlR9DzTGFACaygudl7KEfwsz9SVgJwVSguLaGxpMY7dhjozP4yOlb1tXHLAQ0oGwoaXJy8TxJgjyGqZ7A8WWcSq5tti+GMfG9Kd5iBM25C4588bqeZvMDkmJNn0vbEonzGf2UqGGorVDbwtXntsn0uLJSsJRxMfixF/cjtCuH7zjX7eJ+BKcbAHn68IzmGcIkEE4X4u0P5lk1aSa8sj4EZ4LaLwjVyWavfWcpKOBxkFEY3YTwvibnW49+t9rNncQPx48rjUze25z8UtSP4IyVu9r2YqBTO4haCSSfbR+RwZjRQKvAyKoTyY2WPtmbVjVmB8xnn/h9mn/1VeljH7s8rVyxIsgT28HiS0qK8XJHhSOyAyeyJ98XJVIIkGrTxXOje0yDkcYpFt3IQbhSB2rTpvXhQNmyJSOM9EoXX3pZxL6vvvZqmov970RVZmxcnE2u15OXdxK3p1841+eyuPIQ99yGoIrLD8UU6NwKmar5RloDIe6BBnLRNQ0NLY3BlNYpNqauqW/kIHSGyt5NNLCfNbJEzWeqIx9hbl+f6iAOqJ2/mhubWbcD0QZWrkE/TJTO736ijhHYaP0JNY3Vw+3Nraluy5aYHTgGat6sWeeFr6IPoJ9x6BBzG4Hga0mrb9+8KYSnX0DBeZgRQtfefdMYqoKkxG1Y+0EqI2y3cKRPSTFzfAkflPqVFAu8s/QdJmQVxomxdMmQxcV2kcxaWdodWTD8gf08xGAihJFImGQGyYyB2OGQdYONG7C50QgajmAJnLX1UY+mqWhuakuvvfhSxiGk55tXDOXP70IHY2zd/Ew3cHIRwl7CxZ5aTp4j0YVbDxBZyMKxK5Zt1AZgk23Zair6pRf/kC5GS7SA9Dnz2LBIrr6l7YdYeO2qjZYsmZInfxBtMgiB1h8YwMYNAgsQbcxHoJzVJ29iEOugbZXFO4j10O4aeRzDT9jN5gxH69TDsWzYuintLiEBBGlViFzCrGSavfD5LOnuR9ucmbNmpFpyAjaBVDCMGGw955BokTsrnXbHfGYYxTB9XZtgIqH2pZP1k87MzxRi+YbC2OdTFq5TLb5gh1bRXeH8OAQoPQVr24a96dc/+7d08x1fTL334b36ACuWr0w/+sHfhPq47IpLUUFIPIiRPH7xaUMOb6QfocpABAbEPC167Y20aPGbXNzqYhaOk5uZAMAKIgh3T4xbQufkcyekx375c8zM8MhOVVRVRpipKlPqNQF5LHB43WyU6l5/XwGIGIHNyjx+vX6qbFuaiCLog4fnbI88fRcbVrzy8h/Sj//uR+lr992X6mprQ/ptu27sbHm66NtIYNnpU6dzYqhd4N4tuPA+TFyNw/6KrHVxSt04Gbu7WjmpZzWJGLpqNpdweZjYCf6DPoLCq1OYh1ouIYRzjO4R/sZGkdr+XARQqp2hsqbGvEIO9QfnnTc7IHdDRs2VG2u04QE8CXB1HLRxEM7eudMmpUuu/Gi65oZrESY6i+HH8KLoUTCxqiJNnzIFsKiQ55qYPv+Fz6XZtKIdAd3fXoKSew4QSXUBZXvtMRPKQF8L0pvA9Gwnk0FxjJ7+9ePEjtOj52wDyGAR7N9STEIRzpCnWpuZy6k7gIMh5n3h3DGR7bJjSBNgiSiYDFpPjnz1WjJ8qnTLxR1/Nog4dw7ziY6yGMX4EKaH9cj90Ha7hJ5Kixzk/WMH+HvJoBn5Q1KIgqBWMIyLhk9IdQeOpFPMHUpxhAKAHVDUH3/6qWiWOJbWaiZ54q9wTI9RUKGA6qsI/ugrGL45WdRpHdKmnM6p+neD5ED00xygYQYQ5lqCVbcXQgeXUwupQfQndJ41L6109qrheuVEOhNnno9I4O1zCq0A1mxEhTRr5JS2vjhnptDVOh1oJDEPwTdTxf2PWmiDCURd60yOZi9Mvtni1ZXS33kFKL0POQ+FsA89EzsJ+YbAzhrIOghyjRs1IsJcfa/Ksop0cjJgEH/n/pzkfYs44EgimATkySd++Vj0lJlqTR0bdIw/lFJsssdTPwSVNBanRGdQ9WJVismTEfyN9XV74afJa4vycE5EX6oupZJ7knZs2ZS2b1nPpBE95ANpAyhUOVOru8grSB13Vq6SLIjjBquSTwF/ucDZ+e8xBJk5yEwCag8N4b1pXw2BjkbYymtAav75p//M4OamdPPNN1MYggr0mjyXuLqmTJhbZEx/5QAJLosqNQ/6ALZXn4B2KmKTonqJZ9AnMbDR1poccwNs8GS/BHv9jB1TivBQH0iZ9o4NS4GaqdqJyqrBqaauGfkji4cptFAt+ibqoPLe+7iXBgRAHyzK4bgvGb0yf3wPm27owAmkue7C8Mb8moiBCKxTQvM5bHIT5WieOt2FQEM6ZQ9kHJXCIjLpY1l/QdGw2HA7hTlHycyjY3BzhuTnVq9dvRH6cW4kMoQVTdHaU955sxIJh6MyhSaNG11obXghm++H1anSjAU15A5aiWK68d23l1LKVJNefvoZBlC+zPBkKo9hAAnI1NZuT88++VQ0Nyomc3WYlnJqC52se+97APr40nCKesAfw0TFQDKop1kfRBXpYtoI2Tjdf4f/gT2cAUz9DvmKK6+9NrKcZuBEN72eTpuevinSejACoew8ppoZFtlDbxSJG0+V1O92Kp9snq19FY3chZMrWcZBjoZ+VvWaA/BDdM6NcVMU0v6spdFJHRk6ARt9IZ1lx8g7T8iEWSbAffGLJkR4KY6vyVBQeUQE8GQIih57PB9aTxCnlfvYsGFd+B+mfPUJ9oNZdKKNhw8vSu+RCzDzaBRk2b5JM30Hq4m2glcIrPWjxN/C0ZzckrLqeZdfnoaTsrTbxwgkztoAM3tSqbRbVgg7185RpzsIQYqISUehmuwtLDzZl9Mou2Y3GaYXX/gjfQef4tRvoaN1RzzskLxBzNK7kmvB4wf5G4Djdtn4oemSCcPSTD7nFfeFpUpWrRN2LHbqCGqwYDTsV76fPeeCGKxwGPXuxvfpBfdQYQjYFGdHX0O1iMB4Ui+76or01QceQDhIb4NsyqWzcZOazQXTl1HYLNrUlrt4ZuNcXKd4KHi8IDTZAQTLEC8KL/AdbLqwZMk7oSGt0tlN4kfN0EYxrNxKI5dopYcg6dE7y0cNNRQMxf7+9UQJhqEKj/wH0UdzL+OIpiwlN1EkftKJSdu+c2uwieRiVIDy5aNRjFzEWNTMLWi4Tt5fqpcJLbuAmy0x+bOTVP2q994LIqp9mywS1UGUQ1C3fWdq3LY1MrG5+QjbNTffXG2okpuLs4SNMdsUTSDYULFoF0uV6KiRRk7LfuhJY1lUY2GLH0ygiCQuW7Eq/fRnj9E3eAXw46a0B+/WBRs/eVKaPHUa2TiaE546km4eNyCVjsDD5TDv7TiIKj6TikblMiJ1Uvr4BaBk7UgynZ4HkpQ5AHZ+I+NqNwLIHEFbeOIe/NbDtEgfyimgwRMnWrseAsH3LvxD334oKmRuueOObIYAiyJdahil0drj2oa68Kbtp29TBu3wMcyQC7SPk3qQEizNg5RtSS5ujJm1TiIFHT6v8cGq5aFWzavvQbtYuCoMq/22d5/l4hI9NIuunwkao5g2IF+PsFlXNZJhsACW8Ltk0+ZdTfEe+wltbfQwmo2v2Uk3cIWd52tsaYxozbb9/ZikqSDU1GwHNyiNvdO3MDy34HQAfozsI+sOBvIpxqBaGQYU7mwC98bEWZ89qBO97uEkdox3pTedwj6UcVHjeVEvD0W0QsdmSXXSOXJMqR7kqjWb0+O/+R0PQAcLIgZVYV/GvxztS+dKFs/U6z5Ob/mgM+kjpUPSv7z6ftq0m4Xhbz2BOmO9OLkprbf5anTHHlk5M1V/6+uRCPofP/lpOkB4NR7vegcb1dBUF+bkCAmSM6hINz/zwQl1CP3u+9Jd6Qc/+ScmjQ6A50+lE76ImkOHyvb1Tsy2p4Hz9KxelijZfLQtHMlGTIIm5QRCZUm8p0ptoDc+Im9EoIS2V2mlDqAdOrfT1DQpciSMZEwG2QdA53QYAmyzhz0kXtrIAOqNjwBLyUV4ffBuYvvepw31GJ8HlG4OomBYIZDyejgQzUEhN79RRlRSDntZfOIwQlaACR2ERu1ThYnm/pe9uyTV1tRHQkh8QB+irKIcXAPKGibSTmUjgOYtIGkDmzBHsZ89NmEVIeyEmbOrnWKpaulEZWtrp02ZxiIwKwCV4QM6Ut7eNTJ6Vf/auMPko1955dX0q8d+m3aQcDiXkqb3oHvbn7YX6rKChZoEUaORETKHOb1Tj+5OTyzfkrbToqMn1pd+pl0+jW06wyLzhXiXhsx7WuAcvJlysMNjK8anA4RhRSCVjfTg37BxY1DIirGp4+mFZ2Go9QdRpoXt/PLXH0wLbr09iI+OThvI/du0Qi9cX0LugmrZENQGFIcRKjmLEimNbmT7ilkoGEVs2EhMX1V5efhHCpvFFCbJVOU6aOOx36OhYNn0QtwkT7WN4DejoRohve4FIXWttN22hskHo9DEZk2jbFYB7wJz5JqYoDI3oZ9RAXO4lIhkzqyZsLIpQydyOY0AxsT2wGTIALI+EnXWrVzJ/RxJYyz4HD0KQSKLSlgs/O1cIX2DkZx88w/el9yPExSd7sFE9RkEkGO16EpwAGPRufMuSLPA0I8xXtNQy4vYTcqMmY0PrIr19P/uiSfS0mXLYuy8fLSFv2oOMoZ+w0WXz2cxC1M94WUep6SzpTb9tp6y536EPwPgqckDwAP1mkYRqslIfCtZCILERZsqPf6Lfw2bbHRQhy0sqxxHkqSNU3MsUKyLLr4Ij7lfWvb2cv42YxT++uc/Ty88szBNJxn03374ozRKp5bFlehpGKYzJwM6kikklsQuFB6xeh0zIxk7c+ip26jBLKDPvJ/DsIYOnwNZ+BJNICHjcExIZRnCwWucCmrEoE1f/8HqsNeGoZbc78MZHMy1RCvNsaiRPPEeOomk3vtuNMWw8Pj7BnVtDlVA5WD9w3g/ZzbkIQA2lpSUan2GQJnRj6yf1fhewTvg8OlzuY6aRNlW7Zgxextopkz2GQKPYG/2kRc5BxyizyRiVmPMiedOSudOmgoQMopUKN51Hp0vsDXCwfaycW90ck4zzfmF519MLzz3PBWsrThq9uahcxdvvOCCCak3GHheAWQSOrLeXf1NOmFUpLfeeictfOH1YKNsXEMrGnHyw4xDPQV7h79VyAwEz0I+YXJ68b68XQxr0it2emkfHuLzX7yF7GNHevGZP6QPKDoJGJjXkiXg72Qxdad77r0H9cgoNzas4JJLIiljhGLtfn/Ml8CLYaHkCj1xmcIdhF6qv9P2B0SI++SQfeTEWTugqtTBnH3erCBSxOAMsnfmTRSQQfxMn0JzEeDQuVNTN7WRDWiAgVx7D75TF2r+MHZfAVS4+tKUooYDItNaODc0ABCyuMD1n7wxTSB9O4D3tHm0DqpInr0IcnFaxWL0H/Qj9NPMMbQ1N6U1778fGibMWmtj2gajSNjsJFpy7Zp1UdFkuHp0wOEk3tEfM5fzmdvvrBbMufAjF6YpIESFlHkPIHuGyQzVaW25GSwdEU/Slq070w9pjrwDJ8UERV9OzIzy4vS1S8vT+trW9MS6xvT+hk3EwQPSG6+9A6LI8CIck0ZSpbWMp3fDGA6UhgwbTc7b8ie6Vcnp51Q4icxQzz72QsOeab33Hh+kE478ZvoZmW3ry33ZkVS8gJCA1yNEnizi4ge+8VCaPXMGJJDmVACI4ulwI6NXYbzSJE7WelUU07oHox2FwubMNltWKN34jn17uC7UcbSgB8KoQIEyR+Cp8oDonDrjV+0hcijSpzO2h+RNH17vI1sqL+lDR81nEik1JOvHNYN2Rxs+G0ip3idgr63EzmY3YqJ47RYKRg1Vfd4NWzYGi8gVMl8gFczDsZMNl85eXl6BZqokn1MR/sAw2UTmUHj+USNL8PMoV0OjSmHPueHmL1RLfJgxZRJ1/7l03bItDJLBplv3Lm1KIMU8/w6IIX//o5+ymHLp5MYx1aL38XRrZU56ZiUx/3aGKcQiJx5uR6qrq01PLXwmPf/082nT6hWYiqZ0lIlbx7ra09xpwzE15ekLn/98uv2O28kyViGlawnTCHVEA0PxZ9vlNXtHZlBeHTWIUNNUdffd/wAIGl1GCW10wjxFU2Y6Ym0Qre6WpVkXnB+C4qYZ0qn2/RwA8KPzqbev9y3AIk4vB9LNlyvgCZMtZPJLFpEonSfPU+6BMINn4UWkJfm/WsP8g5nDVhps2BRCn0AvXNNwAGaV5d5SyMQhBvE+Uu/FPuJ9oHaZ2xCfOGavIXyubkCsvUQEjUQhuzExYi2u7ljCRsfMCOZ4ULyGqePcfDq9kEhyc035lhFFBKDG/RmVeI9jYDE3oS3sU7CPg5/zlYe+UR1tzNhkiz9qW+zzR3tSbiaSDCzKfoCQmrq69N3qRwkx4MgxDLqLEG3wkf3pM2POSb9Ztzstp88vRzc8YDfQcirVnTGvXq9UKuFSIVZP3M7aFjiGjVCujwSpc8bs6em2O+4kyUORypo1gdFnoqSbmH0oFtpNDYaCYmbvq1//WkDUK2lWoeZobqqFcfwGArglGMVz0GyRvWQhLWPz5OgE+r222AWyvq4ACld0zuQ066AZpRgODwfd0wew3YonWBDMNnFGR/ou2mOLRJpaGhEuBAl767zAyOzxANp9EdQzePSyiTsJBQ8jhEVEU1WTKtMUDp4Nn4ogdWqKTbzpDIo1iMVY5WtYqVBm1cjD8GuGRxpaxM810inVf9F5NJ+igG7duo0wtSswCrWOL9QX0MQZRioVNo7MufurX6lW8qz0bSWudAyKKiODPx2jcpzwbnf62x/8kDCpKXUDquyHTXoSobixpH96s6k7rd1taXdkDOJrlEwhDKpUT2y0TFEz6KnzPxdORayKlfO/Hvu0dcv7pDzr0xduuS3d8KlPpw2EQ3twYHyl+J9spMzN8/qZuq6rqUlL8C/+01e/AgNoTtg5CSMK2glOWQ3RyZRZ5zEDYXL0QFITSM4IZ4yNdPFE2wbwMxNGTknrAFHztAZax0GwAjdrAwuFC5M4gGt45P171bQfVvquoYWeeflu7LKasTeAlXxKy7vkESgwAjMeACndUr6mEDkZVdmUSw1kwYfRiSIuNK0mdt00yfIKFcI87knB7wTk8lq55imMTDiomh0TeAJklrB5APQHXDep4FPx98aRqMrjwAyiZsOJZDl//vX7q1XvdqM0FVpRih+Ao6QNNPkhAeO9d5ekdzhVliDth9Toib5uFL196f69gu6dsZ1simKmmu45sS6Orl2ANCxekBe52Zh8xcN54vxq7rq9ZT+0bOYSDztKWdnMdOfd98RGbMbXCB37v4yCV80+fF/j6UVvLiL0uzV95tPXpzdeXxTOHbcYC2Fb9quvvi7UrA6acbCXs+ePqtFsoqQLnTE9d2FS8QHb2Vu2ZRvYQ0DinfAA1YhRGcUJM8FlPsJN0Kw0AQEfgIQqUIR8RQJoM1245BP2pIPtrWQhiIxdO3TMZpycjmAr4Zg5r9Vr10bYLZhkL6KIGNDMMpcjp89jZ5GTz2aVlpNCrE0gLW5oCrJoCx61UkkJ1cTspyCYDSisV5RlZFpckorj6a3cynn0e49WuyjZZsBX5830Nk2E2EH0FCfp4a9/gw3iAXdTTMCOzsoF/6fn6h/qbMKahWkuthogc93coHDL4isHPzZaPDtOf88nv9Nuh2OFlBvfr1i+iXGptWlOxVjqDCanD9ZtwV6hmVSn8b/sQzxedayE2YrWYo9rr78+3fTZz6SXX3wBb/ogv2LgAprqC7fdFrlz1Xw+J8jTPoiFsc2aF1D72WlLEovq2ChBmpz4fZ4njIXbw4QOF90FVABs1bafjVew1GR7QUh3kRUNjcXvTaYpiAES8R5qAu2zi3GAWv8WBkqLczQRJlpm3xdun6/JI8lmP6YYsBWazGxjhmP4vFZc6b9YaDLIKE0nmXcwUXWApFwZzqTDp3RQNcGaBdfAyWKaY82VDn5dE026cRRzHvjWX1SHZGG3DWl8GMM+ba0b1tLUlP6V7NoBSo/c6sFI8BWjhqaFO2nqjM3t+VDVZ62bsvPqyXcxerRBWADsqx/x85AN/hPfZH8TI9MIEXcQTTy78Pn0xAuvpaO9zuV9ATWOZ53KQ6D4FE7Vlovw6RtoV99CE1x17bXY/Y+kP77ySvreR69JY8vGp4kXfQTbyEayKL63pI7BYgAAVtK6NFVStprZQPMhSrkqWB9ADWjDyyIIo5oCr6Fx11yYocucZEezwjvkUWw3W1VVGdlCq49kTR22eRX1gW6qxSJGVLstq4PbVzaBQdIcjhgBC9ikSpcnKfNXqfe1ahk1aEQ8rJdaJRaWz0LIubbOa0KL2BNgFBwAM5kWvRrZ6EutW/t+lKz1I9lk+/idRHJqs9nTmb3w6dtur5b8YI+ZYy6ElSc4SqooBWATKvj5p58NSeyN6pg3rH/ayhiWZhA0M4UuQkaI6HHaYj/PbpPLfdYIcENez3Mc//VE+x8/+Oq3/tpGE2oCeQPOvDt2cmAaWXopp4pW8tyn9QXBBGZhIjnE69n/uJZQ6apVK9MtCxbADJ6YXn/pacbYUr00ydr4fBpEguVzevrpB/B6T5T2+TifPsch2L1r166LpIm6RvtvFY9sXjfc4g1Po2pIwTARpl+gCbUIxFq7HbTSqYCVbPRgPxM3UKd6zDi4FZbRca2+OHcDYRvtCswe9c5nIZ68oab35aQUs5GeYE2Y1UdGLJaV2YVEf8KcjRVHfu9XM5dyO9XB4grKihrBIpfDwOavvfRqDI4+Su2HYXlpRVmyNVDOxz97U7Xo1TGcP6t9VSmWQYvpu2Gvw61b9s7S+PkQHmYIP1uzD+Ikpz+GQcQGf1jYnW23mo6InhPmAAVtapbOQCAIOWOzQxR6VDr/Ugj4me8ZrCAeysU+Q1eNnAHn4sx9JLU3rmVRMpUY7eh4rUKj5+7CKYKmRe3f8+V7/oyu32Xp+z//ZXr3/fXptTffSr997LH0JDzFfdDVKnAMo1SMywgQ6QdY2avatnhTSNi8vPR278zBEP5egZMA4qb74eJ7n7KQpZeLgAZtnL8PbIN1VB3rmMoCtrxMKFaKmBpj+7q1gGXlIaBCxLaCMd6Xl3gO4ZypeZ3UofgPCqE3rDNoibf+geZGYTTEa0WDmcRSY6jZ7Bc8hvR2IeQYR+TVbNvGrGfmGwAW5QENOywrZ0BuXrVMETuENtB80CYCeqLadOlIzz35dNqycXMQLcbTEWzLftix7JSMXevmjdY/3EY9dska/jdrUpzLMKrTHBptfeYDkM1iYY1LY/WVhrPHv0cj+FDcUtCXvFZhCbMHR0xPl1x6Ydqw6q0QrhAAHipgZP7vz1SdGpkdRBal5ePS1ddcE697m3L0DoAUG1F946+rIy6fML6SP8omelnenWkfyJ6EaacwgbKDBHdkB+mE6TfIDXAOkD5AN4ijOIn21d+5KWoXNYH8PquQLQfzJGqqTCkboWT1Cfg8hHHn4PdI0iwgEhhOfx9jT5tBSBUzHFQIPYzmKezWolOsQymhRcKITGK11HD8Eml93QjFWFjAIyHc5MIO0iFVCIsxC30YuGXvQlPN/dFIdofVtOZ889HvVYtv24O3mC4W2iztmt6mE0QW0uFL8AKSTyof3C/tYKiv+xU4LZf4MFr3PNh9m9PA9cyz90Fgjp8+nnKr6F49BOSNv+09kAVCBbqIbpgGYRAPEHODVARuKlcSTbOrWG8Wo7x0ZPr+d+9O86j6lQCxaf36EBo3X6HpEZz4nnypwvsevXCvvPaKdMEFF6LFXosSKkkRp9BK02ZT4VRVnvI5qYM5Xap/N0q7LyrqOBwJn0ETZ1GdluKpl3gi0/cwUYEcBSFqM4x6/Vb/qCVVyaJ51kmaZ+g20YOgq8ajXoInDrYU6+Q1RAoN8ewu3kWkISoopU7epH0WLF9TE2jLLYQtAT+IwlKe3fsVkBqMsBieHhCY4kPswvYzAk714CIyugZBALGI1bI2U9OFhcPCYcz5+3/4+2o9XbtS2cJE1oqOoDZHpGnxa2+mFkqvi/FSB/CmLbB3oscMD6L/mW17fOGmhIxJGYNAxewbvOreTPOe+NnJafCovLR3c3saMYfuYWQaz8gZJS9dRK5AFpHEjthIQwauq31Xa2g+Wpp2QXyoSvMvupBMXXl6+eUXY7agH9EcgtcGAimpg3uMOiJO8dr1G2gIdRmLP4gWKctSMW1VWupq0/XXfzxNmzQxHCU5Dfs4YXLqXBxL0qxa1oGSENtKB1Vz8HIJLTq1wNPTLrjU08dfRFBalwWcng9leQwAAAhnSURBVPxj5De8lhsuVVzkzaIS2+64ibKmFTobR3k9eQgxR4D6TENFzU6EmmgWPXc1kRGB62JCyHKyA2QYdRTt26BZisIYkj8KbztYjXTyPFhechTEB0bRQ8Fy9oNiFfhS/k20lbE9inaqAKlx7Is1gUGS4MVy/Yv5Q+41NTEm5r3WziBB2phN5e9W9XwGWeusOpaNe4w4OCIDPqvOZ0TJp+YK2af8yv5p6oLydCb3NHbILth0ImehvZBRgkhi2HMkvh8Nk0I3cwPf++6j6X2AHvv2f+evHolND3mRlODS8KAn0DYnzliwkZ3orRu2pH/7xS/TNZgCU6uPfLc6LVr2XhoPQaUZKHRLc2Nq6GhnKIXIH2YGrSUwI/J2GsESrx+CKSjmYChoUSKOSRDQEdOwkHYMqlSQxVMocDOETzfIUPo4Ec1uOqQcpfxb8om8SqMD9j/ewxBRc6sgtre0RR+g8P5ZjNKzjScytUjoiEbQsTQ7amt9k2jWCKgpWvga0Rv2X0HL5cS/z7znJtLolq6pQdRisr2K0fD5aBbrINRoOf/p/q9V28EqjwezZcpy+GR6u6MtHiR92NLYmN6lOFF1LTFC9drzkZ3/TAiyXdA3yE6wFG2GhGe2uc+BtP6l9am7risVzc5P8z43P61/YWs6CIJ4CtNzghuPeTsIWzcgideNfecaqlml+CgPsJEk0/kwi4egznbu3Jl2QbTAbMaGKzT6JS5QiAR/bzp766ZNzDCanebSQ7/6kUfShZfNpwhmPMpCZo7ACAROwqNuBN8mTVZE6YQ18tzCsR4OgRXRPoEWcXfJJMWEc84H0j8wHeC8ANfNIVHRL5D7FcwxL58HGmdFskCUcxSG86mnbhZRrSkVzNCuDazFFv1jSCMX4KipLdTK5hhkHJkuVjO7PrvRJmqPioqK0Cw6ejqFqnW1+QBIOctXLEujoMwb8mkOsjoPm0gdYXhHc/xt9AdQHUiL3gsHbzFkStWEzkQRdstasz9SYGGbVTe1R+33bH6PMGTbrjso/OurMu9AVdb6wZ50oI5yMW7QdPLOFVvS/vV6zzhf+WebN3PCDmMDoxoojna2izqExt9urv2LXaBxlRXpgvPPBytYGFogNIZCYFaRP8vuDXPgz7lnawHv+vLd6fnnXqBu4KV00RWXp3KQMvMddisxlNN5O4Bjt4970Bar7sVGTP8KF5sJPHCY6hs2zw8Fws4h0USLdzVq8qt+g86ua+rAJ9dVn0gNIZpn6On72aDJvIRhoZi+0YdFqcf4WWVVJebXRtUOjYKbQCgr5cvDoDOZkUhE/UbDFxwd2kS/SkAtWr+xZkZSNrj0ermW2ZtbQOCNQgzf6+rrYo9zHv7rv6r2TGuztVl74b0LOhw4itqiNl6SwZO/eYIFlnb9YbgXq/C/fbhnfyoYbsxJFjFsu9+jHY4x8WPfZmwmNykdasxVSDV+xZE2FkA20VkfQHPia/zbqJFjQ7yHrZu3pqtvuCHNYBRNS0sjOYStIXBZv+Hs/bN76PFRGBYF9buCbOO06VMpe1ucVqxclabPnhUq2FbvqmsXTUDGBlg6fGL5zuaxGlkegyXw1hDqLNoEUhKoRtA1M+kjWuiYt6E4j7bKd7Su4ZsefTw/H7ahOcZzeNrNGhpBBFmV19pGXxNja5jgCCBA2n/TzXZjLSCeV8AM2dWIrpOOpqY4BINrCFgZkvq7E/ydXdzeX/EegBbt6TTr+HSaOUNXm4B4WHL+8rvfrbakq60Ne4EkFVHTb3MDCxJOoL6GIoErlr1L+xIaRMYt/MdNjic7+/Gnm9/zs57XRxJIs5C5D4HeuZhH9mAC2kH69Phj89XdJoz8zv8IJbOI+ARqgYBIWbTZF3wkTZ5QmX73+L/zcx2k//d9edU1azekSy+7FMfwg9RW15Sef+opWENzSZmOC79TneXiicU7FqYBx7ex3qzeOUw6GY/XXBg2UxNhty2Rv7ElMJcNB7kv1azMIDuLygmQf6BZ8PQaVZlXserKvLydRBRw38vNdqK37eCkr/uaJt7XjJ0mqQtQqJ6Ck0ALoX1pz7uw3834L26iPMw1a1bT4u5kqigtC2exJzpC1khNw4jmZ3IS1fDWIlpfOWY0rCYEJufhv3yk2mTBflAiCQ2VFZUxtXo4XHlJBoaINnx+/aU/ssJZ7N4T9/ds8v/vq4vvRxgEHjqz13YHyTx9hzIdZUbggumV6Yry/LS8Gbyc1ylMnpz4yl/rIErb8rQ21DamktLK8E+kskni7BHOnvf7j/fkWPhDEFReZ8jkwfSx625I9z/4jTR58uSoBfC0KXDG1WodhzHuxUNXJbtgk86dEkwbFzYWmIvnYgoqoIYNxekSwYuWa2osfhkaCYF1eqjJI4ma1vTLqrZw1eKOLoRJWrifju7VqzdM9T7lH7Y2N9N8glF8vK+Dnu3bcIA5gdLRVedmHeUwNjfRj3jvnuBtVkEeta2NZknzqv/Sjb2XXGt2V8dVePsg7+VzKfg5N31xQbUAxwluWHUlh7wIO6Inq1oz7zwY1fbC83+IpItBlh8uwv9tsTUDPT/veU2G3ovgZ1Cvu6WN0uM/wTC/MwAy29ooX26in65eXTgAvNpd5e3UoBF24gto19UGi15/OTliJUrFQzBDX/yH9/7Te+FX2eXQ13rPNXU10fxpybtL04XzL46cvxGL8K4dtqVLOWNHoXOOwlAORxaacnJ5rSc55vwhAMbwfrhJ0VeQ+/PvTEErwtK29NLXrWOsDRpFYMgZPs0wlvxezWuuX4DMtnkKeyvRgwZXhLCqsjJMTRuZWLEFkUS7hYiA2pzD+yokoVTKqe5SI/Fepo0dQCl/cxs0fckfht82mxKokuGtVvifog2wsmOcgU8AAAAASUVORK5CYII=;fontColor=#FFFFFF;" vertex="1" parent="1">
                    <mxGeometry x="320" y="360" width="120" height="120" as="geometry"/>
                </mxCell>
                <mxCell id="25" value="" style="rounded=0;whiteSpace=wrap;html=1;shadow=1;labelBackgroundColor=#1A1A1A;sketch=0;fontColor=#FFFFFF;strokeWidth=0;fillColor=#1A1A1A;" vertex="1" parent="1">
                    <mxGeometry x="519.99" y="550" width="220" height="70" as="geometry"/>
                </mxCell>
                <mxCell id="24" value="" style="shape=image;verticalLabelPosition=bottom;labelBackgroundColor=#ffffff;verticalAlign=top;aspect=fixed;imageAspect=0;image=data:image/png,iVBORw0KGgoAAAANSUhEUgAAATkAAABRCAYAAACpMdFyAAAABHNCSVQICAgIfAhkiAAAHNhJREFUeF7tXW2MJMdZrp7dO9sXpFuUy097+yRI7PBxewk/EHGybQEWSAiPiSLZwXBzthP4gXTrPwEixM4pSPxIwOtIICQnujkU2xeI5D1EvojQ9sUxQoTk9kDBIKTc7PkftpU9iC/n8+00z1NdNdPT291V/TGzdztVdl131fvW+771VtXT9dE9K4QLzgPOA84D+9gDXpN1+9jHoqUoEosDIZYoF8IDKT+S//rI8OWdzEioRiHhJU2xooexLCVOiH7kiT7zWkJs7nhiO3pbXOr1vO0hn7txHrgNPRBFUQizl/NM9xDyaC5/DGnKu+PJJ6OHBoPBktdqBWiIgJ6W8IQbjVtj172gD0QffWBTiEG4s9M6D9Drl6+pK+E8sHcecCBXz/elnwCdTuS3WoNTgLK28CJ/CGwEMDkh0zmj+Zqel90i9BCA1/v85+fP1nOdK+08MB0POJCr52drkAO4LQDcVgFdKx6WmhH+I6ChAZC6/dIwf9Obaz31uc95AD0XnAduXQ84kKvXNlYg9/jjNztQ8zTiglSX2jK7zdPrg8HcSbd3V68jVSmNwcu9W+41dRDP46HZrSJnv5dxIFevheeLisvZm7h5BiDW3rX45NpTHh6o6+2bbs95N/1O5waA7iD27lyYpAcUsJ2ADvQp4Sd0nZ+kXid7dj2Ag8jsQIDzxNsbwLG23Gxj2KdXVGup5XkbADp5KuxC8x4AuLURL0PyRcQVRL95LU6i88BuD2SCnAY47LUtRQMCHHbgFMDF10R6/9Axa3VAt7uLNJbDB4jfmDQnyHnA0gO7QE4CXHRjAwvRJREN4iMFebiAINOc0CXTMeDtEzqATmBG9yM3GC07kGNzHrjVPbAL5FrRjTMEuAiAxiBPUXkdqLQCuH1MB8jPnbnVG87Z5zzgPGDngTGQe/y3rq8A1Lh3IktnX9NL1zTf7U8HogePd65z38gF5wHngdvcA0OQ4zIVn0WtCrnHhqCXpDqtZnSzQsdEdpU+uc3b15nvPDDzHhi+QtIaYBYX6ffgAHRYo+qZnDxV3eP0PYstcfx9MSa/596WuHYtEq9eiXDFcd13dsTrb1Sz99AhT3zgg3Pi0CEh3nnEE0cQr1wZiB9dEwstb+czvZ54cpK9BD5+CPL1pryvdPVxZdzEu2NTe7UCtixDZ6CiMmV4CadtT9qAKukc/1IUXxfaRuT7ebyfeIAtPpScQOTDk22uQ4gbbUs/kT+1W9hGe9gXfRWTukMk+oj0Fe2cakj4zYdiRh36uAkRC+2S5wWdzg8WxM7By55oLRDYhl8y6C8a9vD6Sw/OiQd/ZV6CT1G4sjUQf7e+I77zrzet7L/7Hk889PC8eN/754rEksZGXUN8pqkGho/ZyVcR24g+lRQE6l9HfCqpHzLUlDuz5AXwBpmUVKayBZ/pydc6aJcpGP0BmSGEEDCbCg+gPpRpFdSg0P61qVMfgin/NPTwvtEAewhs9O+SheAQPLSDVxlM/gRv8eDQglLXRNt3QPJz2NLZm8igfeyTpQN0dlGIbZMXKJs8rHeACz9CsPFbD3ws22fZZIinRjsH2l7kAeDi01O9VN3L9CJmbt1PHRQffeyAEeBYIc70fu/UAfHExw+IQ3ep15Rz6vNQe16c/pM7bACOojlIuoiX4XQbZyf9u+tedfjLILDT+7sYdmdQfweR+jlYGguqE/G9tS4i9dgE7Y+LqrxNmanwwB4+pDko6N8Oom2dfMXPOhUNwFL1gCwc4EX0bw/Rtu8E4N1gPVifUgpLMEM2+xL91EX0SxRlPV5EedpoW6cS4mNW1h93G4i2OjrgZfvxOhYkyHkDTx428HHAK/6V1zjNU9VkevL0exY98YlPHpTAVTbc/8F5WTbP/sc/dkA89BuFH3rkqWSHy3RiXoF0Pmw6g7weYpXOyzI9yFhJy62SVp2BncivUl6V21ByKoporhjs4GDgoK3jH/q4C1ls5yptNKyQ8gsBjnZVCawH/VvLjrRiykOs0w+1yAA3tcZD2jadhn1ruK/SjvTVGeX7oXiJIoAwrsUzAI6ANtrrQuGYewwQm6Vzb+wTn7wDe2SVZuDSXoLjEx+PgS5p/wcAgPd/qBLASbkq0ImlO67qWJ2koIr3fMLXkqPsZ0dvItAfQROCqspQ9SFgNwUIbF8O4NLtzDqo9mnCv9TPejUSYBf9Q3mdRgTGQtj+3O5oKhCL6sqjTcO2a3Ue+79AWqfei0suVeP8GOhM9CPvjAQPBKqW1/IJTnUATnuaYPa+nwOgqa2rI0eEBL6GQqkODIeTv9OQbooppT9Db93yaZFcvvjpzGmkoTeAHs6YmgI4bTbrs1G2XuBvo1yT/uVgXdZGVb3CLg1wlYDboHcN8rsGHltyU/axT8o+0RI7uNF72OoKYmxQzjVJv/e+OfHppw+JTz/zDvEHf3SXOPPcj4lff/iAdXnJqPTce18rBiZbdxj4Hv1N7M9xRgj5T/zOHQbuUmTutXRsSqhOb8VrI68uj7K7qY6kzWFn4h7KVIPqxC9OUCnrZS0f9vjgbxLgmqwa26fpdk/at4r6B00aXFMW22KFMvC5pprWpQBOA5m+aiBK5hPgfh/AduRd40vL9ocPikcfi2dNReVpQJLO/bQmw5F3tcQv42SWMzra2nBYNcm7RTt9YLJb0S/hegFxy4L/KnjIP+1AAJJP6wkGPtDWLOUT4CZtj6UpIzbY30GKcdJhOHuatCJL+SfINy8iz9efbo2Wmvrb1NFhhIQxAGF8GBFfn/zdO3N1PfirB8XL33xbXNkaHVqky6fTH/iQmgHmShV4fy2Sr4m8ildG+NoIZ393L87lzgDbH75DvP5a/Elaltj/emVHvPIfsbxD7/Dkfh5B8Z1HjIcePjrPEo6sN7PkqrwurradniARIlJeH5FPXR+xjbiI2FTgnkdRoB3t5FG8AmsO9KyyfI9vJevovkhJXZoauEEJObQz2Vb06zHL8qegbx11DPP4S9rDh8K6soc2LSCyvRmzfJyn1pgPuyibszjbwPanbTr4uAkQbfogda0hdnThmlc+YHuIISL9xEAfBYgriIfjrNx/OUYDgNzA97yWnFHl/m2G4Xty8cqSfHfhNQ2+PFsU7n3vnNjq7yTeWxuV58RxpM8T77GYab26tSP+9FPXJNDp8q98L/7Jddryh398KBOcOKNLB8r47J//SLzyveR7dbF961/yxKO/fQcOKYx7eG3I1c4fU6GAQT5JDIEN2ckYQKEqt6IGEDuPqVENqiSZHbEojAEcGRWA8QS+h6SuEwcDwS3MEMYOmNbTSZTNKCKeQmamL3PyV7OEpPIIJvTbGuzcTtG6CgBIt2kn6gsLdJ4qoCVJp3PsWSeT6jc93C5byjOxZbVFVpnChxXsatNuRBPYnQBvt4GH3lnoYv9Kt1uI/BA6aAvvTQ+qID5d1R/j5y5ZRx/nQ6gERM56TOEudUI6/Ji/QD4B0RSe+bNr4tqbWd/GDuRsjXTb8OxfXQfAvS3Z0/a9+eZAPP/Xb4k3Xs+fASo9SwX62LlMgUDB2WBYxAh6j3yI5J9oMHRO1omgzBeTc+0GbZN1SkaU6RsM31UmUX6so6P/dSDLN8gjwAWQwQGXHiiyKPMRKeskIvmLQgC9QRaDyi/qCyxG+ceL7CET6H1E6uEgrxVg1wIE2IAv27NN3XkKQVsHzbYPdvPkWOZfYrsgZrYbZShagFtju7XgiBiZ1VI0fYqal379f+SnT4XhVczi8spzKiZhUgGs6YuGb124Id7gsjN1CpxMUx/5TOEKZoTf/ZcbY/rT9lz74UD8w1eNstiJ8oJp2aEHYW5DJgWrDthGnqlR8+yxykd/WMljZMdC9BHX8nimlE8/mAIBbtPERDr4erh0LHjz9NqU5aC1skfZRJnnLWwqYglAXChiAI1f8li1J9sf/JRpetia+r7BJLt35JQ9Rts5k/M5wIEecoYmg2X661+5nmssgeQ731YgYSEva0mZFP6f2Dezsc8G5GIec331TC+3kjlTZdjpowxjUeCTk53GOoC/D+YV6wLZjCaQ5Ht4q2oWkC1h73NNg+h0GUBhdcC/jotp9pS3hMzL1546q+SX9VwHBUztVSQzKCKCtgW7SvUn8LPP0q6iwBeOgyKGAhptCgvoaRLbrSgscyYnGapc1790XXz32/GSL6mFS8dn/+LNUnKLrCRNHx6Y7LQAJnEFMz6THNLJZwgLOfQgJ19nczoeGngyySjXA2Erk2iXaeoUlNJFvAwfEPBMgGKntSEu2BMYRBEU1gw8eeRuHkHl86TVT/Ko9FhehgyT3IwiwyVZ1bpQpqntqtq1CdmmWWaQWSlzJmVbB4wHI/98vGTMPkUdLeHy6Z/9zA/Fve/FKxo/hW9MscF/pX9TfCu8IX8lhMFWvk2tCDxJebn2GYRdw55blpws+QZReWQ/j6Dyewa6iczyqyamHDpB7kQOLZlNAF9hhF+2cQ0RWfa8eppbiJgIS2CQul7VPpTro64XIL9oZuaD3k/YwHRRuEC5RQwGGn1eta19C9kGllxyD5QiEA1ySxYTjKCVUZwPtsMZ+TJrbCbHgc+BzpB1zaNzKfni31wTn/vLN8XXv3xdAlyZ8rFxsd74PuNfBXBZcrW92j65d1cQ8mZyWfUrEFNECoqIoFVpyKTI0CA/l4wBx0HDgVwmEPDaiD3EH6ANziD6ZQRMkTesqctUPl1v+qYomOQVleUyulJfQfuY7CL4bhcqLybWqlex6NLUQh8NT1fHB/jobzlQnf41khHANE+3qZat/tdeK15mlq2PjW0leQobpaSsKuwdFKqz18Pyl9EeVWcYVWy2LdO3ZczhM5X3U+WWcuQ0mW3a6M/SNVG7LAByMcuovcjjC3Jy6RYDCGZTe5Q2Vl4dXtjYZ5JVqr4mYRXoFh2kUCrKh4UMBqJaPgVgqwN01NJFv+GH7KZZg8GiUmTaPcnQb1h4Ew+0OjOuvOqEeYSG8v2G5NQWg5mcXlrGALd3aVNd7O0zSkoAprm+Jmnl6XVBAeVrP6XVMogd8Wz5GoyVoC0bNWWUKd4EaBTpo0+aDLXbqkljErImbVfdB2hj1R7uyXGGxKCXhNNPG+qktuys7TOIs62fSUxFet0OtlBR71gxzigRO8g8ikiwq9oxeeq40oRNFjK2DTx1feMb5Kf19w38TZCXKwgx2VXLTxYP6s0KNk+kSMuLxIX4D0hDfmpzf5hO/XGbJNDIpV9TdFMVLe3D5LQwlLG/UFA+0dTAS/lFrSh1y48p4fJVgZ0PwsOIVQBv1cryyTO1a6ow+Tbdtn2DvsBALyRXnbWrLYki2VWAMymvVr2KDGua1ooEDhGAVHrg8zras4rzp0HnsrEo8EcEGGzsK5JDWpn6mWTl0Ps5+Tq76OjdUFSST9gwleVRMzu+gsG38/mk14BnI4ovgNYFGBs9aZBJl6k8eNXsxFS+n1KYTu+yR8lN59um6/h0q0gJ7OoU0Q00k12mdjKIb46sTlcVgGBGlgYAqhoC4ITppmpxxmhjnxEwU0tzU/1MdmXQw4y8ZFYAnaYZQ6YIlAtAqFQ2U2BBJoBOAh5YjiKeL2DVpInbRZsMdvg1Bu8KZC8UyN9Kz5BUuhBMII9yq4ZTVQuiXGgoW0k2/OtDrulBa2ong2nNkeXpqo7DGZvKI6BMjW6qE2eYMEgCksk+C1mUYVU/k6wMOjr+JrJN+1tnMooWZqHuHIBPFzKVJELmKmKvqBgHMmIbPBeK+EArAghDUflNpG0w2cEvNXxbYeQD/xIuq4YyYQ49L1+z86eaKL9UQJk1FKjjU5Nd3EvtljIqZn7RVAb9xaTbJKIxupzJSdCQF75Eq0BkD9LSiIJgbV+BDEkqVV+TsFz6ei4lJrCDWQMdeNnZ2blKD5YsOyAvQLwMWhfxBO79LL5UXmjgKbKtbyhro1+LMPlW+kr5zKB2CHAbRsb4ZegstjArM5FHe85Y+lgWA28Hl0ozrYRe+sn0sF1VuhLFsm/pT0SbPng2W8Le5GImFyuWACLxLQF4U0ybqi/tKmGPWZ5dfU1yCui9ApomdVCvDUS/iBd0ggcHYVDEZ0NLdFTKS+q1AYUkf5a6MCtT5fULaCSdgG1tA48m93BjGrz02WXIPFEkE/RV0OkLAlFRuJA3O0F+DwVNS1baw3cKTfYQSDhbP1NkjA0Ndm2Db82C9wx0Mub6ALQAcugnmzbqWuicGgv/0ov8n0tBznD26mqqsV5a2ti39X31owGoV7yJl77a19NkVx6dAwIdg8uq5TwelR/gehm8PVxDxL7K58VHZKey6ViJYtm30MGZQRcxqzPrQdiF7WNPYtX5WbZwgGZrHeZywJkCgbYPpmSkXadh06YuzMELvjWkVw0CWc8eeLu4riPShhAxQPQR24jksQldA1MPdFt7VsBLe8KETNpBe8rYlCiee7sGCvUdzuWICR1c+NClXZuI24i0iTFAXEK0CWfRPn0bxmnxzGMCh/0WsYzKAQ88OZPbiysBtijQLgYb+577/P8Ct1U98q6W9SyyyYLWBc+GBR9ZOipaspdjg98ClGCHLwo+iASFHq59FdnJbTv4ep5wghTkcvZlGmw+eBiT4ZlUmknWpYO4mEFLZ/nIWElnlkhfgP2hgb+MPfSnrU8NaovJJR4IWlAbN4xVAtu3W6XgJMtgTy7qx8CRXKomTjGBLdOgmyoZTzSTQKfsnbR9JsMK6GpgZA3QglKTISlbxmZoBk0+6AGi7WC8SiAzyAwNdGsyBy+YORhNy1ZrmTmMlG8c9MqeTo6MPc2GbV0YwFXFpMMKdPUnraSsfIDc+Mf2nFFpQOGVa9kkwEyKbjJcvyc3Kf16prhbvsmyYjoafQUcl4q5pkbtQtOkQIGyTWHNxFCGrkCV/p1kCBSAGXWALwTTLfFQyzCWQL2Vkd9U1lnUv9eUsCblyNNVfeigf0p89DcPeNo6JbqpVpzEydNfZU/6OkG6yTQLegCeJoGuzIxsaJ56ynYs7C3Lwh8BNQKYAoFGZxRqYJ0sa7AFPx8GD0P+pgVv0scE3Urtk6OH/aZ230E9tiGHQFdbVoadBLhORv4tkYVvVwesPIJaCg5iIOGMRubq9MTpJn/sjX0mq2zoqoMF4G2ig9XqULBlHXY0CQqsE+tmGxqfUUwA6AhwnMHRV6WDGvBNAB3toL/UGC1tylgB2LWJjACxiX6oZZ9W9a1n3ARL49vVFjeEYxWJpaoEvbE0WCZNN1V00voz5JtMsqWjI7CjBojnbctk8PGPjnQy8ktlKVB4AIU4iOoEDmTr5RwVKT9w4E5iRne8AblsnyUFCJV9o9rpKQio6mMCEX3br2xERsFEPzxdwzZK3kJ8APK6GWpuqSy5XPUQ9YxteMigProfpfVSUe3RNU3XQJvjHv0jANO2L8ecStnsYIgc4AQYdhLboDvUim0BEx/sCMHjI1bp7AQCdvCOGjQmdWN0lNlEDJD5MCJlVQWCPLknQSBIlAkXwMw6tRH7ZQrm8ULOGmhLiGfzeDLy6YvTKFsbaDNkyyzIZj/s4lbbVsb/7ItPobyPGObpuJXyvcd+7dUAS9aNPKM8ENQ8L5OlKfpjH/9xsXj0wC4dWv4Xnt0WW9/f/ScCm9K/S7HK6K3f/fL8vHczj46GDvJopnwANjtZB5HXBcRjqgwH6DbiJmIPOnidaIAtbSigHYFSxHu+7qFt6eOedvB7Vt43GqDfh0DGdOhX1adksl6MDD7iIqKu0zbu1xk58CXHhAJsWYBobQvvlxDpX4JGX0XaQXumHlT7B1BMuxh47SNqv9CucBp9MVbf3L8AucsAudaGXIrihTnOlHATL01nPA0/nH/uy4vsmC44DzgP3KYeaH3h74+Go1PL0d4c6yMBT96MlqpxOs7f//TBnjxVb9O+5Mx2HrglPSD35BhiwIoPG7hA1WkNZDNIv3rwoFzKuOA84DxwG3tAgVx0CQtVuUSVQZ0yjl9njt7trR/V+xG3cRM7050HZtsDEuSAafzgWXoi80VgmT9T9K3nvnp0bba7hqu988D+8ICeyW3KU8ohkI1/ysX8maLHr3nsjxZ2tXAemHEPxCCnZnIEMr1E1cA2c2kRnXz+K0c3Z7xfuOo7D+wbD8TL1UEkB/X4IcMMpsXg9PNf+4nevmldVxHnAecBEX/xEA36nLGNgG50yDB+qqqBb7/R8cb9YHDy+a/9ZNf1CecB54H95QG5QmX46IP/TeTCndx9U9eYpn+Acj/SUbdL+Nuznee/8W63RI2b2/3rPLCvPICfP1dAhp/qHv5CsPzggV9A8Ko/gODfZ1W/HLw/6FdRjZUXvvHu3r5qUVcZ5wHngTEPDEEOA56/RrIs53HxyjUGuLG0PmWNZUgAvN3oHj4Ij7x1B25uJDgPzIYHhiA3EDubLWzRyT241Leroxlc9retWXTIOc+PnnENcF2MZ4b25eWp7nDmqGeQ5csPBtGlVkuE0cAL79g5GPZC94LvbHRtV0vngdgDQ5BriTnM5FI/mDl2GKEPHUZTt/hQYpSv0wSolvA2n//Ge7pU0wkuL1yfv76Erb4lwBT/5FrAOSCuy6Sn5eipZDo/KT9R7gLtxh/f2cY3tvJ9v0EUhWJe9F/42r198rngPOA8MLseICYMw6O/+EofiUXO5PTMK16zlk+j3NkX/vG+jo1rhyBoYL7z5p2bbiZmcJIjOw84D4x5YDiTi3P5Nxe9U3KpyIzE5lzZNGZtcpZmExRwhTa8jsd5wHnAeaCMB4a/QsJC0Y63Fi8J9a+Q6KVk+ldJLOgi8h8JXvHLGON4nQecB5wHmvbAGMidC+/rYwZ2Vi5VCXpyjw6Ahp86j9M8do0BzoYuWoNO0wY7ec4DzgPOA2U8MAZysmDkdTWA6SVqfNga/31WvZSNN/vJr9+ny6BH4lQnuLhQxiDH6zzgPOA80KQHdoEcZ3P4ozanqWTX6Wbij9dY0XGS+pY4eKZJg50s5wHnAeeBMh6Qk7Ws8Ejw7yFOWZfjpauc28n35yqme+fCnz6ZpcflOQ84DzgPTNIDuSDHZeZ1MdcHsh1Ofcoq8S4+flWmWaX5F56ik+fCnwmbrBDtfMubOxZFnte07CbtdLKcB5wH9sYDuSBHcz4afG9pJ7oZeqJ1WH+kX/+KXzzxWmutnWjzhZd+9kKZaj/6wL8t7+xEfqvV8jGjxIvFYgn46uNFYODn4PS5bx7rlpHneJ0HnAf2vwcKQY7V/0hwcakVtQB03mH9grDcq2vg0y/5Hp7Hv+WJP3YLXXpCmLoGSb15fzYR5R3I7f/+6mroPFDaA6mXgXeX/9vw+CaALmjteD0ADJaF8hOqeG+OE6hkmkBVmi5nZAmA4+sqkI+8GEdVOvFaS5b+3Za7HOcB5wHnARH/aKbJEQS6t+bwvWkk5PIyPnWN358jGg3T6guJvaGbauHozgPOA7PogV2vkOQ5YT08vn3upWMAuugpTLSuyqWmDPE1BjYmVf6U6YOB+nGBvAq4fOcB54GZ9IA1yGnvfPGl42teK1pCGr/LNgI0/LruboCbIr10RWayuV2lnQdmzwPGg4cilzxy/8VgIKIu9siWh6eu3Dvj+3T4b7R3NtE0fuHX637x5eNrRbY6mvOA88BseqAWyGmXPfLzF/3BXNRFuo14mEvY+BRUc0wgLbzzXhStn/un9/dms+lcrZ0HnAdsPNAIyCUVfeQX8MqJGHQiTwQQjtPY4dsm+q2TqterAM4QP4i5/vbB1jr3CG0q6HicB5wHZtsDjYNc2p2P3P/tIIpa+FXgyMd8bglr2AXcHxvx6RdIVI7nXcJEcFt4UR8/FtBvtQahuDnfP/fPx/tp2S7tPOA84DzgPOA84DzgPDDTHvh/M7HKf3JXF8UAAAAASUVORK5CYII=;" vertex="1" parent="1">
                    <mxGeometry x="529.98" y="560" width="193.21" height="50" as="geometry"/>
                </mxCell>
            </root>
        </mxGraphModel>
    </diagram>
</mxfile>